<?xml version="1.0" standalone="no"?>
<!DOCTYPE svg PUBLIC "-//W3C//DTD SVG 20010904//EN"
 "http://www.w3.org/TR/2001/REC-SVG-20010904/DTD/svg10.dtd">
<svg version="1.0" xmlns="http://www.w3.org/2000/svg"
 width="1920.000000pt" height="300.000000pt" viewBox="0 0 1920.000000 300.000000"
 preserveAspectRatio="xMidYMid meet">
<metadata>
Created by potrace 1.16, written by Peter Selinger 2001-2019
</metadata>
<g transform="translate(0.000000,300.000000) scale(0.100000,-0.100000)"
fill="#000000" stroke="none">
<path d="M10035 2627 c-66 -22 -102 -44 -154 -97 -57 -57 -115 -167 -133 -251
-7 -32 -14 -59 -18 -59 -3 1 -30 42 -60 93 -69 114 -181 230 -265 272 -55 27
-69 30 -160 30 -91 0 -105 -3 -159 -30 -240 -121 -234 -457 15 -941 171 -330
305 -481 526 -589 45 -22 82 -43 82 -46 2 -14 -223 -61 -399 -83 -309 -40
-1012 -46 -1255 -12 -452 65 -1053 179 -2020 386 -107 23 -264 26 -349 6 l-60
-14 -64 68 c-199 215 -547 323 -987 307 -242 -9 -386 -40 -703 -147 -144 -49
-331 -109 -415 -134 -731 -215 -1659 -388 -2702 -505 -272 -31 -689 -71 -732
-71 -14 0 -23 -6 -23 -15 0 -18 -26 -19 236 5 1508 139 2716 370 3675 703 302
105 472 136 739 137 179 0 297 -13 426 -45 187 -47 320 -115 431 -218 96 -90
96 -88 10 -135 -143 -80 -263 -240 -302 -404 -19 -81 -19 -112 1 -179 20 -68
90 -141 149 -158 73 -20 136 -14 204 20 118 59 175 177 174 359 0 133 -32 253
-101 382 -7 13 115 31 208 31 77 0 143 -11 355 -56 393 -85 667 -141 905 -187
781 -150 970 -176 1335 -185 512 -13 1012 31 1270 112 48 14 54 14 120 -6 223
-66 516 -68 760 -6 50 13 178 55 285 95 248 92 339 121 525 170 357 93 683
130 1166 130 719 0 1301 -81 1667 -232 39 -16 72 -31 72 -33 0 -2 -13 -37 -30
-78 -16 -41 -37 -119 -46 -173 -14 -83 -15 -110 -5 -176 27 -178 118 -296 250
-328 147 -35 245 82 244 290 -1 180 -96 316 -308 444 l-60 36 64 60 c69 67
202 138 305 164 223 58 471 44 776 -43 351 -101 1233 -168 1871 -142 762 30
1273 129 1664 322 132 66 170 90 164 107 -3 7 -27 -2 -64 -25 -240 -146 -658
-269 -1110 -327 -602 -77 -1413 -72 -2105 15 -210 26 -295 42 -439 84 -182 52
-295 68 -471 68 -170 0 -266 -15 -380 -60 -89 -35 -212 -116 -259 -169 l-39
-45 -64 27 c-395 167 -1073 256 -1833 241 -612 -13 -997 -87 -1570 -304 -279
-105 -413 -133 -646 -133 -142 0 -263 14 -359 43 l-45 13 88 42 c168 79 254
155 358 315 214 331 339 733 300 963 -24 139 -82 223 -188 276 -61 30 -74 32
-182 35 -77 2 -129 -2 -156 -10z m214 -18 c136 -22 217 -83 263 -198 20 -49
22 -73 22 -191 -1 -118 -5 -150 -33 -254 -38 -143 -65 -214 -142 -371 -69
-143 -160 -286 -226 -356 -73 -79 -186 -150 -314 -198 l-52 -20 -72 30 c-166
69 -330 208 -434 368 -132 205 -259 485 -302 669 -30 124 -24 276 13 347 41
79 97 122 193 151 75 21 138 14 222 -26 109 -51 234 -193 309 -351 30 -62 51
-75 58 -36 33 170 75 267 145 337 91 90 205 123 350 99z m-4612 -1396 c55
-101 89 -263 79 -380 -16 -193 -117 -313 -266 -313 -36 0 -76 7 -96 16 -48 23
-101 86 -115 136 -34 127 41 325 173 456 57 56 158 122 189 122 8 0 25 -17 36
-37z m8882 -246 c130 -110 189 -233 178 -371 -15 -169 -84 -249 -202 -232 -95
15 -196 121 -227 239 -30 118 -10 300 47 425 l25 53 59 -31 c32 -17 86 -55
120 -83z"/>
</g>
</svg>
