<svg width="666.667" height="666.667" xmlns="http://www.w3.org/2000/svg"><path d="M5000 0H0v5000h5000V0" style="fill:#f0f0f1;fill-opacity:1;fill-rule:nonzero;stroke:none" transform="matrix(.13333 0 0 -.13333 0 666.667)"/><path d="M3195.96 3826.28c60.53 17.17 121 34.59 181.77 50.9 77.91 20.93 156.08 40.88 234.14 61.22 10.92 2.85 21.79 5.99 32.84 8.25 13.72 2.8 24.1-2.35 31.12-14.6 4.85-8.47 8.26-17.46 11.29-26.68 23.19-70.61 42.21-142.28 55.82-215.37 3.89-20.87 5.17-21.28 25.43-16.59 5.23 1.21 10.44 2.56 15.69 3.74 6.06 1.37 9.16 4.36 8.59 11.26-.68 8.12-1.46 16.04-5.36 23.37-8.74 16.35-13.57 33.98-15.9 52.21-4.11 32.14-12.59 63.23-21.41 94.3-11.45 40.39-24.91 80.11-39.45 119.47-4.93 13.36-5.92 13.69-20.31 11.35-13.27-2.16-26.49-4.6-39.79-6.59-30.84-4.63-61.67-9.65-91.87-17.32-105.82-26.88-211.27-55.09-315.13-88.98-52.14-17.02-104.24-34.56-157.88-46.3-99.39-21.76-197.16-49.7-294.87-77.6-115.33-32.93-230.87-64.97-346.85-95.5-56.18-14.8-113.61-24.32-169.27-41.16-15.16-4.59-16.39-5.61-14.14-21.29 2.29-15.95 4.8-31.92 8.26-47.66 15.93-72.49 31.74-145.01 55.19-215.59 5.06-15.21 4.71-15.37 20.05-11.45 2.6.67 5.17 1.48 7.8 2.06 6.59 1.45 8.44 5.45 7.37 11.91-2.59 15.57-7.07 30.37-16.12 43.51-8.92 12.94-15.72 26.85-20.13 42.01-3.75 12.9-8.11 25.63-12.08 38.48-7.3 23.63-14.94 47.18-18.86 71.72-4.66 29.21-.58 36.26 26.85 45.47 1.03.35 2.03.75 3.06 1.05 59.32 17.47 118.62 35.05 177.99 52.37 48.01 14 96.96 24.86 144.2 41.38 82.85 28.98 167.14 52.65 252.24 74.04 72.56 18.23 145.47 34.33 219.24 46.61 4.23.71 8.44 2.07 12.76.97 2.69-.67 5.01-1.97 5.31-5.17.25-2.46-1.19-4.36-3.08-5.21-4.89-2.18-9.86-4.32-15-5.76-88.57-24.76-177.12-49.5-265.74-74.04-43.01-11.9-86.25-22.92-128.14-38.66-35.23-13.24-70.31-26.92-106.63-37.14-84.89-23.9-169.68-48.15-254.51-72.25-8.28-2.36-16.62-4.49-24.82-7.08-10.52-3.32-12.09-5.32-11.14-16.24 1.21-13.98 5.56-27.36 8.55-41 11.07-50.48 31.27-98.16 44.89-147.84 2.53-9.19 4.55-10.32 13.93-8.16 14.66 3.38 29.1 8.38 43.94 10.21 11.96 1.46 19.3 7.09 26.33 15.97 32.85 41.46 69.89 78.98 110.85 112.37 52.84 43.07 110.22 79.5 173.92 103.84 95.34 36.43 194.01 55.26 296.83 50.41 56.79-2.67 112.21-11.54 166.79-26.85 5.53-1.55 10.88-4.71 16.91-2.87 2.57 3.99.45 7.68-.66 10.97-17.36 50.95-26.56 104.24-44.61 154.99-2.52 7.09-5.6 14-7.81 21.18-6.24 20.18 2.42 37.91 21.61 43.36" style="fill:#fff;fill-opacity:1;fill-rule:nonzero;stroke:none" transform="matrix(.13333 0 0 -.13333 0 666.667)"/><path d="M3677.38 3653.85c32.41 7.99 32.41 7.98 21.67 40.01-.34 1.02-.51 2.1-.89 3.1-1.69 4.52-4.89 6.55-8.33 2.45-13.37-15.93-27.46-31.34-39.07-48.65.66-1.02 1.3-2.03 1.95-3.05 8.22 2.05 16.44 4.11 24.67 6.14M3756.79 3607.97c-47.41-9.97-93.28-25.93-140.5-36.63-65.54-14.85-131.1-29.59-197.7-39.27-13-1.89-26.66-1.89-42.57-9.07 24.25-16.66 44.54-33.31 65.14-49.55 4.95-3.91 10.16-2.03 15.4-.71 16.68 4.22 33.26 8.98 50.12 12.38 54.27 10.96 107.83 25.63 163.06 31.73 11.74 1.3 23.49 2.59 35.28 3.56 3.18.26 6.94-.67 8.25-3.95 1.46-3.64-1.61-6.01-4.32-7.68-5.49-3.39-11.06-6.69-16.81-9.58-30.88-15.53-63.24-27.1-96.53-36.25-29.83-8.19-30.92-9.98-18.67-39.43 19.72-47.42 52.71-84.55 92.21-116.42 4.36-3.52 9.27-5.45 14.81-5.59 49.89-1.25 97.9 3.5 136.93 39.99 8.9 8.32 15.93 17.18 19.8 28.77 7.19 21.49 11.99 43.53 16.41 65.7 4.16 20.84 4.24 41.54 1.03 62.56-2.36 15.38-4.48 30.88-4.41 46.54.04 6.52.53 13.01 4.07 18.68 3.86 6.17 9.55 6.85 14.85 1.9 4.02-3.76 5.94-8.9 8.34-13.7 14.43-29 23.47-60.09 35.23-90.13 34.78-88.83 61.8-180.19 85.03-272.47 16.78-66.67 26.83-135.01 41.04-202.36 21.41-101.52 40.15-203.67 70.67-303.1 7.87-25.65 8.74-26.8 32.71-19.89 21.48 6.18 21.98 6.35 14.72 28.3-13.51 40.86-24.13 82.62-38.76 123.12-5.13 14.19-8.81 28.81-11.17 43.73-3.6 22.84-6.32 45.85-10.9 68.48-21.03 103.9-48.53 206.27-73.98 309.12-18.61 75.18-39.78 149.74-57.6 225.1-13.98 59.12-24.58 119.03-36.66 178.59-3.84 18.92-3.78 18.86-21.46 12.92-50.47-16.97-100.8-34.4-153.06-45.39M2385.84 3831.36c-1.59 2.34-2.17 4.26-3.35 4.77-16.97 7.25-34.1 12.73-53 7.54-18.62-5.11-37.31-10.14-56.22-14.01-31-6.34-62.1-12.44-93.37-17.24-20.17-3.1-36.55-8.69-44.16-30.39-3.25-9.28-11.42-16.83-17.82-25.82 89.06 24.48 176.47 48.51 263.87 72.61 1.45.4 2.66 1.64 4.05 2.54M2164.79 3161.58c58.53 23.07 116.77 46.96 178.67 60.09 32.42 6.89 26.25 2.41 37.16 32.26 2.98 8.16 8.33 15.81 8.29 25.41-26-3.28-499.94-132.13-512.35-139.16 3.44-4.04 8.62-3.94 12.96-5.53 37.82-13.86 73.02-32 99.74-63.14 26.24-30.59 53.44-60.41 76.31-93.79 8.42-12.3 10.44-12.35 23.76-5.04 12.33 6.77 22.4 16.67 33.5 25.13 35.23 26.88 66.27 58.13 93.91 92.7 10.78 13.48 20.19 28.01 24.72 44.95 3.38 12.65.47 15.64-12.33 13.6-19.63-3.12-39.19-6.77-58.88-9.43-7.12-.96-15.66-2.53-20.2 5.79-2.79 5.13 2.47 11.32 14.74 16.16M2460.93 1588.65c-2.38-21.59-4.6-41.78-4.44-62.19.19-24.21-.03-48.47-2.79-72.5-4.71-40.94-28.5-80.36-75.55-86.2-12.32-1.53-24.6-1.78-36.95.38-9.05 1.59-10.5-.57-7.76-9.47.47-1.53 1.12-3.02 1.69-4.53 16-41.92 26.3-85.24 31.69-129.76 2.43-20.01 4.66-40.06 7.02-60.44 4.17 2.5 4.52 6.55 5.89 9.84 39.74 95.31 66.81 194.15 81.3 296.36 4.68 32.98 7.93 66.19 7.63 99.62-.07 6.82.31 13.78-7.73 18.89M3654.87 3863.31c-.68 2.89-.46 6.64-6.38 8.92-88.28-91.08-174.83-184.71-254.3-288.28 20.03-1.03 31.37 5.42 40.4 19.95 28.81 46.32 63.47 87.99 103.36 125.34 31.79 29.76 63.07 60.06 92.43 92.29 4.32 4.73 9 9.43 14.33 12.91 15.95 10.47 14.9 8.82 10.16 28.87" style="fill:#fff;fill-opacity:1;fill-rule:nonzero;stroke:none" transform="matrix(.13333 0 0 -.13333 0 666.667)"/><path d="M2019.13 3670.6c-36.88-6.56-73.61-14.51-109.13-27.95-46.54-17.61-95.09-27.15-142.02-25.28-7.59 0-11.97-.5-16.19.09-24.87 3.5-43.69-7.64-60.3-24.39-3.79-3.83-7.53-7.7-11.39-11.44-35.23-34.03-67.81-70.55-100.86-106.66-28.34-30.98-56.03-62.39-80.54-96.56-23.72-33.05-23.83-37.24-5.68-74.43 25.31-51.86 45.22-105.77 57.92-162.2 1.65-7.33 2.75-14.78 4.26-22.15 1.05-5.14 4.2-7.19 9.44-5.89 4.7 1.17 9.47 2.03 14.13 3.31 37.33 10.29 74.7 20.37 112.48 28.97 104.9 23.89 207.75 55.67 312.23 81.24 90.39 22.12 178.27 53.33 268.9 74.64 10.36 2.45 11.11 4.15 7.75 14.95-5.91 19-13.27 37.59-18.37 56.79-15.71 59.28-29.12 119.08-38.76 179.69-2.87 18.05-6.14 36.04-8.61 54.16-3.63 26.74 6.9 41.17 33.13 45.61 13.32 2.25 26.22 6 38.98 10.17 14.85 4.85 29.89 8.97 45.17 12.12 108.62 22.33 215.6 51.36 321.92 82.42 101.21 29.56 202.59 58.41 304.64 84.83 46.85 12.12 94.42 21.47 141.24 33.66 67.18 17.49 132.91 39.93 198.65 62.07 55.7 18.77 112.35 33.26 169.83 45.17 45.23 9.38 90.96 16.75 135 31.52 33.94 11.39 69.65 12.86 104.9 16.71 17.38 1.9 28.89-6.03 36.53-20.79 2.47-4.77 4.55-9.77 6.41-14.8 16.69-44.92 31.96-90.39 41.9-137.24 11.16-52.72 30.97-102.98 42.13-155.64 2.19-10.3 4.76-11.67 14.89-8.85 16.56 4.63 32.97 9.89 49.21 15.54 12.58 4.37 13.31 5.59 10.17 19.15-3.75 16.22-9.6 32-12.6 48.34-6.71 36.59-17.02 72.19-27.02 107.93-8.25 29.51-15.34 59.35-22.89 89.05-9.53 37.53-18.96 75.07-31.16 111.87-5.73 17.3-18.57 27.85-34.71 30.08-21.61 2.99-44.2 4.48-65.65-2.21-42.67-13.28-86.58-21.79-129.32-34.7-162.24-49.05-327.43-86.6-492.41-124.76-113.17-26.18-226.1-53.28-338.48-82.59-98.33-25.65-196.24-52.98-293.96-80.9-79.11-22.59-158.84-42.94-237.37-67.66-67.18-21.13-134.79-40.61-204.39-52.99" style="fill:#fff;fill-opacity:1;fill-rule:nonzero;stroke:none" transform="matrix(.13333 0 0 -.13333 0 666.667)"/><path d="M1074.7 3461.51c3.35 5.44 7.54 10.61 12.26 14.9 47.79 43.39 96.32 85.88 153.2 117.4 5.16 2.86 10.53 5.38 15.93 7.75 2.96 1.29 6.54 2.2 8.77-1.03 1.72-2.48.17-5.29-1.51-7.4-3.33-4.2-6.78-8.33-10.43-12.26-27.87-30.04-59.55-55.88-90.63-82.37a3628.953 3628.953 0 0 0-54.42-45.5c-6.64-5.43-13.64-10.65-21.91-10.64-12.03.42-17.19 9.52-11.26 19.15zm200.38 104.56c-.76-3.84-3.37-6.68-5.77-9.49-6.61-7.75-13.26-15.49-20.22-22.91-34.11-36.36-66.88-74.05-104.87-106.6-4.89-4.19-9.74-8.43-15.72-11.06-5.46-2.4-10.54-1.84-14.85 2.36-4.35 4.25-4.78 9.34-2.5 14.8 2.32 5.57 6.25 9.98 10.31 14.27 41.11 43.38 87.1 81.06 135.69 115.66 3.89 2.77 8.22 5.08 12.64 6.89 2.82 1.16 5.13-.37 5.29-3.92zm7.87-21.49c3.46-2.19 2.48-5.64.94-8.55-9.35-17.65-21.13-33.7-32.61-49.96-5.55-7.87-12.74-14.66-15.99-24.07 8.55 7.35 17.15 14.64 25.63 22.06 4.45 3.89 8.54 8.2 13.07 11.98 3.58 2.99 7.5 7.61 12.54 3.51 3.93-3.19 1.82-8 .53-12.06-4.09-12.87-10.31-24.8-16.52-36.71-12.73-24.38-27.76-47.29-45.45-68.32-10.3-12.25-21.75-14.83-30.77-8.26-8.65 6.3-9.36 16.53-2.22 30.62 2.67 5.24 6.69 9.81 7.97 15.75 4.72 4.91 8.96 10.23 13.13 15.61-4.17-5.38-8.41-10.7-13.13-15.61-6.52-6.39-13-12.82-19.58-19.14-3.48-3.35-6.93-6.8-10.79-9.68-5.2-3.88-10.99-4.72-16.31-.22-5.4 4.56-5.3 10.35-1.98 16.02 2.7 4.63 5.77 9.09 9.07 13.31 33.27 42.48 71.29 80.49 110.33 117.55 1.56 1.48 3.14 2.96 4.85 4.26 2.14 1.61 4.65 3.58 7.29 1.91zm351.1 358.38c-4.9 4.21-7.42 9.27-5.62 15.7 1.79 6.35 6.68 9.4 12.75 11.05 8.23 2.24 16.15-.27 23.85-2.16 51.19-12.51 102.78-23.38 153.61-37.4 11.39-3.14 23.02-5.47 34.43-8.55 3.77-1.02 10.1-.58 9.42-6.48-.59-5.01-6.47-4.78-10.5-5.55-3.66-.7-7.49-.77-11.25-.79-16.66-.1-33.34-.74-49.88 2.36-3.94.74-8.16 1.62-14.76-.87 22.23-4.52 42.22-8.27 62.03-12.8 6.71-1.54 18.21.45 17.96-9.04-.2-7.56-11.34-6.57-17.76-7.59-16.27-2.57-32.66-4.65-49.24-5.02 28.03-.09 55.85-3.07 83.76-4.21 3.76-.15 7.53-.2 11.28-.53 2.66-.23 5.67-.6 6.41-3.79.76-3.26-1.84-4.89-4.29-5.85-4.49-1.75-9.12-3.22-13.76-4.55-17.69-5.06-35.96-7.07-54.16-8.03-45.11-2.37-90.28-3.41-135.3 2.14-6.47.8-12.62 2.8-17.97 6.7-4.18 3.04-6.75 7.05-5.66 12.43 1.22 6 5.39 9.24 11.2 10.03 3.14.43 6.45.19 9.61-.3 17.09-2.67 34.29-1.33 51.47-1.34-24.49 2.2-48.77 5.67-72.86 10.44-7.41 1.46-14.73 3.33-21.44 6.89-8.07 4.29-13.88 10.61-13.85 20.2.02 9.16 5.46 14.75 13.98 17.63 1.39.47 2.49 1.78 3.62 2.63-1 4.05-4.71 4.62-7.08 6.65zm226.03-123.18c-34.94-11.45-71.03-15.75-107.58-16.93-12.43-.67-24.65 1.16-36.86 2.85-7 .97-13.69 3.17-19.16 7.76-9.82 8.24-7.78 20.94 4.1 25.51 6.05 2.33 12.54 2.67 18.99 2.91 46.74 1.82 93.18-2.59 139.62-6.71 4.95-.44 12.39.25 12.77-6.75.38-6.77-7.12-7.09-11.88-8.64zm-833.49-1154.16c2.08 14.35 5.33 28.54 8.29 42.75 9.12 43.73 19.55 87.11 35.06 129.1 1.68 4.53 3.01 9.32 6.53 12.83 2.94 2.93 6.13 2.35 7.52-1.45 1.08-2.93 1.18-6.34 1.13-9.53-.42-27.42.55-54.87-2.83-82.21-1.84-14.87-2.99-29.82-4.45-44.74 3.11 4.01 4.26 8.47 5.48 12.92 4.98 18.17 10.22 36.27 18.2 53.39 2.81 6 4.48 16.36 12.37 14.61 8.54-1.9 4.5-11.61 4.03-18.14-1.43-20.38-3.16-40.74-4.69-61.11-.23-3.05-1.76-6.35 1.84-9.78 7.46 1.77 14.15 6.3 20.91 10.4 74.01 44.96 148.6 89.02 221.7 135.42 52.71 33.47 102.04 71.79 145.26 117.34 5.25 5.53 9.63 10.93 10.71 19.17 5.65 42.95 6.46 85.72-3.52 128.18-13.44 57.14-30.81 113.06-51.67 167.94-8.4 22.1-17.87 43.9-23.78 66.86-6.16 23.97-3.85 46.21 11.12 67.48 24.15 34.32 48.41 68.63 74.9 101.08 38.1 46.67 79.85 90.2 122.25 133.01 7.2 7.26 14.52 14.43 21.17 22.17 23.07 26.8 51.09 41.79 87.48 40.02 18.19-.87 36.57-1.41 54.72 2.03 72.2 13.67 141.86 35.17 208.43 66.56 35.67 16.83 63.61 41.84 83.45 75.83 10.67 18.27 6.33 36.51-1.99 54.01-6.85 14.41-21.04 15.97-34.61 15.93-46.4-.15-91.87 9.66-138.08 12.16-56.98 3.08-113.05 14.23-168.77 26.22-43.78 9.43-87.49 17.6-132.61 14.07-27.85-2.18-52.29-11.36-71.96-31.87-9.68-10.1-19.12-20.36-28.34-30.9-19.82-22.62-39.56-45.23-62.52-65.07-22.75-19.66-45.27-39.73-67.13-60.38-25.83-24.41-52.33-48.01-79.45-70.88-71.96-60.66-143.91-121.35-217.14-180.5-11.24-9.08-22.6-18.05-30.53-30.75-20.52-32.84-31.74-68.08-29.28-107.08 2.67-42.39 6.09-84.69 15.38-126.3 12.9-57.79 15.15-116.29 7.95-174.84-5.15-41.76-7.21-83.48-6.69-125.46.2-15.59.35-31.29-1.2-46.76-5.94-59.37-12.34-118.71-21.64-177.67-5.1-32.36-8.8-65.03-17.81-96.7-.89-3.12-3.48-6.28-1.47-10 10.48 3.63 14.82 10.52 16.28 20.64M3303.13 3562.91c6.13-2.37 10.11-1.67 13.35 4.21 3.89 7.06 7.9 14.08 12.4 20.76 30.91 45.95 63.7 90.54 98.02 134.03 34.97 44.32 74.06 85.21 107.83 130.5 5.05 6.76 10.32 13.37 15.45 19.99-4.23 3.48-7.3 1.7-10.31 1-20.41-4.75-40.85-9.43-61.21-14.36-52.09-12.63-51.59-13.09-86.3-54.48-40.12-47.86-75.01-99.61-113.12-148.96-20.18-26.12-18.48-26.03-10.13-57.9 5.09-19.41 17.28-28.33 34.02-34.79M3211.28 4045.04c2.45-8.63 7.77-10.49 15.97-8.54 10.96 2.61 22.2 4.08 33.1 6.91 60.86 15.77 121.02 34.09 182.27 48.44 55.97 13.11 111.04 29.91 167.21 42.32 17.29 3.82 34.89 6.47 51.52 13.04 34.98 13.83 35.38 5.15 23.24 49.17-.71 2.57-1.91 5.01-3.05 7.44-1.69 3.62-4.34 6.16-8.46 6.65-8.53 1.04-17.05 1.99-26.4 3.08-16.65-2.99-34.34-4.8-51.27-10.43-14.34-4.78-29.01-7.62-44.12-8.87-12.81-1.06-25.53-3.39-38.3-5.04-24.09-3.12-46.6-13.18-70.58-16.44-35.2-4.77-69.79-12.32-104.3-20.48-44.05-10.42-87-24.07-128.45-42.33-11.76-5.17-12.13-5.73-10.42-18.14 2.22-16.04 7.63-31.29 12.04-46.78M3441.42 2957.99c-1.67 7.86-4.23 15.56-6.7 23.23-17.96 56.02-52.16 101.22-96.18 138.82-53.75 45.93-114.03 78.43-186.49 83.77-35.57 2.63-67.83 15.81-97.76 34.94-20.25 12.94-34.31 31.04-42.46 53.33-16.25 44.43-19.96 88.93 1.09 133.25 5.36 11.29 4 12.88-8.13 13.6-22.12 1.32-44.25-.53-65.92-3.76-86.06-12.83-164.95-43.49-233.96-97.65-11.31-8.88-19.81-19.51-25.44-32.68-8.46-19.81-16.25-39.89-21.73-60.7-12.83-48.75-8.65-95.35 15.2-140.69 21.56-41 68.19-66.75 117.35-59.58 21.73 3.17 42.27 11.32 56.88 30.19 16.2 20.94 35.14 39.28 57.95 53.15 51.61 31.41 107.01 39.28 166.06 28 43.71-8.35 81.88-26.55 111.76-59.71 87.2-96.73 75.31-247.31-19.19-324.93-17.76-14.59-25-32.53-29.22-53.52-4.75-23.72-2.16-47.29 1.44-70.59 6.96-45.12 31.9-77.87 72.35-98.78 20.22-10.45 42.17-12.06 64.41-10.9 8.61 0 17.29-.77 25.8.14 26.59 2.84 51.18 9.63 70.93 30.08 25.47 26.35 50 53.3 70.92 83.48 7.2 10.39 12.09 21.26 13.95 33.88 2.32 15.94 6.07 31.68 8.71 47.58 6.55 39.51 7.73 79.2.5 118.67-6.58 35.93-14.53 71.63-22.12 107.38M2856.89 2266.61c-27.81 6.37-55.18 14.59-81.46 25.27-16.52 6.71-31.75 8.22-48.27 3.27-2.57-.77-5.26-1.16-7.86-1.77-12.12-2.85-12.9-3.4-13.57-16.02-1.88-36.23-20.74-62.36-51.51-78.31-46.68-24.2-96.17-28.3-146.84-12.69-5.95 1.82-11.57 5.1-21.43 5.48 10.59-14.69 21-25.86 31.09-37.36 6.94-7.91 14.67-9.65 24.51-7.07 16.61 4.35 33.3 8.48 50.11 12.02 43.6 9.21 87.5 17.12 130.88 27.25 73.21 17.11 146.18 35.27 218.43 56.2 3.21.93 6.99.85 9.87 5.06-15.61 1.74-29.97 3.39-44.36 4.91-17.3 1.85-32.87 9.93-49.59 13.76" style="fill:#fff;fill-opacity:1;fill-rule:nonzero;stroke:none" transform="matrix(.13333 0 0 -.13333 0 666.667)"/><path d="M2578.24 1810.74c-.6-4.6-1.62-13.66-3.05-22.65-.41-2.52-1.76-5.23-5.17-5.1-2.48.09-3.88 1.97-4.55 3.98-2.4 7.11-4.95 14.21-6.75 21.49-9.88 40.11-19.33 80.34-29.43 120.4-4.33 17.16-9.92 33.99-14.9 50.98-1.04 3.61-2.19 7.22-2.77 10.91-1.01 6.52 1.54 11.72 7.31 14.82 6.59 3.52 12.59 1.64 17.51-3.48 5.33-5.55 7.86-12.74 10.54-19.76 10.8-28.2 17-57.59 22.47-87.17 4.88-26.44 7.62-53.1 8.79-84.42zm-305.22 533.57c-1.84-1.27-4.24-.35-5.98.94-4.75 3.51-9.43 7.09-14.02 10.8-32.3 26.13-58.92 57.9-87 88.17-25.91 27.93-51.02 56.6-76.48 84.94-5.4 6.01-10.87 12.07-12.46 20.32-1.69 8.83 3.87 15.9 11.71 15.39 6.2-.91 10.65-4.97 15.13-8.75 26.72-22.54 51.3-47.36 74.31-73.59 31.86-36.33 62.24-73.91 87.46-115.32 3.06-5.02 5.6-10.37 8.21-15.66 1.23-2.5 1.74-5.43-.88-7.24zm-38.89-12.49c-4.11-4.09-8.14-.53-11.62 1.47-11.7 6.69-22.57 14.66-32.62 23.61-36.97 32.98-71.66 68.18-102.38 107.13-8.19 10.39-10.83 17.09-10.78 22.98.09 9.44 7.23 15.07 16.19 12.13 3.98-1.3 7.87-3.65 11.09-6.35 45.15-37.82 85.39-80.19 118.46-129.07 4.49-6.63 7.82-14.09 11.26-21.37 1.53-3.25 3.68-7.27.4-10.53zm-50.34-17.18c-3.51 1.25-6.98 2.84-10.13 4.82-10.51 6.59-20.45 13.99-29.38 22.6-18.98 18.3-38.2 36.41-55.06 56.72-4.57 5.5-12.13 13.02-5.72 19.65 6.83 7.07 14.05-1.13 19.26-5.74 29.41-26.09 57.61-53.39 81.73-84.61 2.3-2.97 4.75-5.89 5.17-9.87-.72-3.22-2.91-4.62-5.87-3.57zm-801.4-2.62c-2.03-.69-4.09-1.34-6.16-1.88-53-14.14-105.59-29.51-157.16-48.31-13.09-4.78-26.8-7.88-40.26-11.62-3.08-.86-6.29-1.49-9.48-1.72-3.97-.29-7.43 1.15-9.61 4.7-2.62 4.26-1.59 8.38 1.24 11.98 5.85 7.41 14.2 11.33 22.46 15.25 25.38 12.04 52.12 20.28 79.29 26.89 31.82 7.73 63.48 16.74 96.65 16.45 6.99 0 13.98.23 20.96-.1 4.08-.19 9.7.29 10.21-5.35.41-4.63-4.66-5.12-8.14-6.29zm-32.38-43.85c-2.32-1.34-4.77-2.5-7.23-3.58-36.94-16.17-74-32.09-111.8-46.16-5.52-2.05-11.26-3.5-15.31-4.74-12.04.18-17.59 9.55-13.17 19.57 3.73 8.42 11.34 12.8 18.87 16.94 21.37 11.72 44.37 19.26 67.97 24.85 10.96 2.6 22.18 4.28 33.38 5.57 7.97.9 16.1.65 24.15.54 3.75-.06 8.22-.77 9.4-4.83 1.33-4.55-3.07-6.3-6.26-8.16zm.24-51.96c-23.58-12.7-47.52-24.63-73.54-31.61-3.02-.81-6.4-.85-9.53-.53-5.12.53-9.13 3.12-10.82 8.26-1.5 4.57.38 8.39 3.34 11.74 3.25 3.67 7.42 6.14 11.8 8.18 22.13 10.33 45.7 14.78 69.58 17.17 2.36-.13 4.51-.12 6.63-.41 3.19-.44 6.99-.88 8.1-4.21 1.5-4.51-2.34-6.85-5.56-8.59zm-234.05 69.48c1.91 8.85 7.82 15.19 14.21 21.01 22.3 20.31 49.22 32.36 77.35 41.81 24.94 8.38 50.49 14.62 76.3 19.86 22.86 4.65 45.89 4.83 68.94 3.1 6.54-.49 16.59.29 18.03-7.29 1.62-8.54-8.76-9.55-14.68-11.8-29.1-11.03-58.38-21.63-87.76-31.89-36.56-12.77-71.47-29.34-106.52-45.59-9.22-4.27-18.36-8.89-26.73-10.46-14.03-.44-21.77 9-19.14 21.25zm201.99-880.07c5.11 3.76 10.36 2.27 14.69-1.65 3.97-3.58 7.55-7.61 11.08-11.65 35.42-40.42 68.35-82.87 102.04-124.7 19.19-23.85 39.02-47.18 58.58-70.73 3.08-3.69 6.66-7.04 7.72-11.53-.7-4.83-3.86-5.52-7.21-4.84-8.02 1.59-15.22 5.35-21.97 9.76-18.53 12.13-34.99 26.76-49.9 43.05-33.76 36.88-65.64 75.32-94.2 116.42-6.74 9.69-13.05 19.69-19.27 29.73-2.25 3.62-3.88 7.67-5.35 11.69-2.04 5.56-1.1 10.85 3.79 14.45zm54.24 662.03c8.47 6.89 18.5 10.79 28.87 13.82 30.04 8.8 60.87 13.23 91.93 15.9 16.04 1.39 31.98 4.37 47.13 3.38 20.02.85 38.54-2.32 56.88-6.63 5.19-1.21 10.2-3.3 15.17-5.29 3.03-1.21 6.12-3.28 6.15-6.81.04-4.61-4.04-6.25-7.66-7.04-20.98-4.56-41.86-9.94-63.07-13-42.55-6.12-84.57-15.12-126.95-22.1-9-1.48-18.05-2.75-27.13-3.7-4.22-.44-8.62-.32-12.81.34-7.09 1.12-13.93 3.37-16.14 11.31-2.31 8.28 1.42 14.76 7.63 19.82zm262.21-63.86c.33-4.6-3.6-6.45-7.01-7.81-11.97-4.8-24-9.47-36.14-13.8-27.89-9.97-56.49-17.34-85.55-23.01-8.58-1.68-17.09-2.29-25.45.77-12 4.41-14.8 13.94-6.89 24.05 6.59 8.42 15.97 12.68 25.85 15.58 29.51 8.63 59.42 14.92 85.86 14.57 16.88-.43 29.34.37 41.31-3.58 3.51-1.16 7.69-2.19 8.02-6.77zm-4.81-47.68c-12.73-7.01-26.71-10.91-40.19-16.08-13.04-5.01-26.68-7.86-40.38-10.29-14.98-2.65-25.35 1.16-27.58 9.65-2.33 8.92 5.47 18.58 19.73 23.61 18.34 6.45 37.27 9.52 54.04 8.92 12.87-.16 23.09.5 32.95-2.83 3.09-1.04 6.48-2.13 6.91-5.79.43-3.7-2.63-5.62-5.48-7.19zm-211.94 48.15c-10 3.84-11.97 12.49-4.52 20.26 6.15 6.42 14.43 9.18 22.62 11.82 18.48 5.95 37.66 8.6 56.7 11.92 27.67 4.81 55.55 5.42 83.5 3.92 11.31-.62 22.39-2.7 32.99-6.86 2.52-.98 4.86-2.61 5.01-5.65.17-3.21-2.21-4.8-4.84-5.61-5.63-1.73-11.3-3.42-17.05-4.7-41.93-9.37-84.1-17.47-126.47-24.52-8.52-1.42-17.01-2.37-27.32-2.55-5.79.06-13.42-.8-20.62 1.97zm130.41-797.48c-4.5 1.66-9.03 3.53-13.07 6.08-36.65 23.12-67.58 52.73-96.03 85.08-3.9 4.44-6.97 9.53-8.2 15.5-.82 3.96-.17 7.61 2.94 10.28 3.69 3.15 7.94 3.02 12 .73 2.32-1.3 4.55-2.91 6.44-4.76 32.27-31.44 66.03-61.42 94.26-96.79 2.99-3.75 6.51-7.2 7.32-12.27-.67-3.09-2.62-4.98-5.66-3.85zm545.08 951.46c4.37.01 7.46-2.12 9.92-5.03 19.8-23.41 35.73-49.32 49.3-76.74 1.21-2.45 2.08-5.43-.38-7.36-2.47-1.92-5.19-.34-7.14 1.52-6.56 6.27-13.15 12.54-19.41 19.13-11.82 12.41-22.24 25.99-32.37 39.79-3.81 5.2-7.34 10.69-8.06 17.26-.66 6.1 1.93 10.33 8.14 11.43zm12.05 43.45c1.52-.27 3.02-.64 5.91-1.27-2.03 8.55-8.76 16.17-3.05 24.58 5.63 8.31 14.21 5.12 22.93 4.26-1.64 9.43-1.25 17.41 7.7 21.5 8.49 3.87 15.67.17 22.55-4.47 5.84-3.95 10.92-8.78 15.23-14.31 24.88-31.95 46.37-65.93 61.76-103.54 2.85-6.97 5.26-14.11 6.11-21.66.3-2.75.31-5.55-2.26-7.21-2.68-1.75-5.43-.49-7.36 1.34-7.78 7.4-15.67 14.73-22.91 22.64-7.11 7.78-13.48 16.24-20.16 24.39-.63-.38-1.26-.75-1.89-1.13 5.81-13.03 11.83-25.97 17.34-39.12 2.69-6.42 4.54-13.2 6.55-19.88.79-2.63.77-5.83-1.85-7.23-3.45-1.85-6.15.66-8.27 3.15-6.63 7.76-13.18 15.6-19.66 23.49-6.78 8.25-13.43 16.61-22.67 23.42 3.04-5.03 6.15-10.02 9.09-15.13 7.24-12.6 14.13-25.38 17.44-39.71.72-3.12 1.17-6.63-2.31-8.56-2.68-1.5-5.2.06-7.48 1.51-5.95 3.8-11.01 8.6-15.35 14.14-24.21 30.94-46.32 63.33-66.94 96.76-1.41 2.27-2.77 4.66-3.67 7.16-4.12 11.51.92 17.12 13.22 14.88zm198.47-443.65c.8 5.83 1.85 11.71 3.62 17.29 1.88 5.9 5.61 10.71 12.64 10.56 6.18-.13 9.62-4.01 11.36-9.72.59-1.94.74-4.25 3.4-5.52 1.87 7.16 3.26 14.41 5.65 21.3 6.87 19.87 17.01 22.74 33.16 9.72 4.49 2.17 4.21 7.19 6.27 10.78 8.01 13.95 16.45 14.03 26.21-.14 4.12 3.12 4.19 8.54 7.13 12.28 3.59 4.57 7.9 7.43 13.79 6.58 6.66-.96 10.14-5.53 11.85-11.71 1.81-6.5.09-12.81-1.1-19.13-12.62-66.56-26.52-132.85-43.87-198.37-1.65-6.23-3.16-12.51-4.95-18.7-.59-2-1.69-4.04-4.38-3.98-2.51.06-3.84 1.8-4.68 3.78-3.84 9.06-4.97 18.65-5.03 28.38-.09 13.22-.02 26.44-.02 39.67-.74.13-1.46.27-2.2.4-2.51-8.58-4.85-17.21-7.63-25.71-1.1-3.36-1.66-8.45-6.36-8.15-5.74.35-5.53 6.01-5.68 9.95-.42 10.72-.15 21.46-.15 35.23-5.44-8.75-5.1-16.14-7.59-22.56-.96-2.48-1.89-5.2-5.13-5.46-3.31-.26-4.71 2.34-5.77 4.75-3.07 6.94-4.49 14.3-5.17 21.86-.57 6.28-1.65 12.51-4.03 18.61-1.31-8.94-2.58-17.89-3.96-26.83-.41-2.62-.78-5.69-3.98-6.3-4.2-.78-5.45 2.83-6.52 5.68-3.99 10.65-5.61 21.87-6.69 33.1-2.3 24.11-3.47 48.25-.19 72.36zm-1303.64 617.54c-3.897-2.56-8.119-3.39-11.959-.24-3.688 3.03-4.313 7.25-2.988 11.76 2.64 9.01 7.722 16.79 14.082 23.3 31.185 31.92 66.685 57.57 108.955 73.04 4.07 1.48 8.22 2.6 12.61 2.22 2.42-.19 3.85-1.53 4.22-4.18-.72-4.51-4.35-7.11-7.57-9.86-22.92-19.54-45.79-39.15-68.96-58.4-13.23-10.99-26.98-21.37-40.52-31.99-2.54-1.99-5.17-3.88-7.87-5.65zm-45.705 36.69c-3.985 1.41-7.067-1.71-10.688-2.16-13.148-1.63-21.804 7.55-19.179 20.69 1.753 8.75 7.199 15.55 12.89 22.03 11.742 13.39 24.926 25.26 39.133 35.98 30.509 23.02 61.219 45.71 97.019 60.23 9 3.66 18.13 6.8 27.72 8.46 4.58.78 10.22 3.38 12.85-2.52 2.2-4.97-2.84-7.59-5.95-10.24-12.28-10.46-24.75-20.69-37.11-31.05-2.02-1.69-3.86-3.59-5.79-5.39.38-.82.77-1.64 1.15-2.46 12.07 5.59 23.97 11.55 36.27 16.56 5.05 2.06 12.59 7.51 16.01 1.65 3.89-6.68-5.47-8.89-9.59-12.32-35.96-29.92-72.06-59.67-108.19-89.4-9.131-7.52-18.44-14.82-29.014-20.33-14.699-7.64-16.805-6.44-17.531 10.27zm873.635 559.38c5.21 3.52 10.26 1.39 15.03-1.6 7.34-4.59 13.74-10.33 19.96-16.29 6.2-5.94 12.42-11.84 18.62-17.76.58.35 1.16.69 1.74 1.04-12.7 15.19-25.45 30.33-38.06 45.59-4.11 4.98-7.78 10.33-10 16.48-2.57 7.18-2.15 13.87 4.33 18.92 5.49 4.27 12.1 3.25 18.93-2.75 2-1.76 3.73-3.87 5.42-5.95 35.22-43.42 70.44-86.85 105.63-130.31 2.36-2.92 4.59-5.96 6.72-9.06 1.8-2.62 4.24-5.55 1.8-8.7-2.65-3.39-6.11-1.19-8.68.36-7.34 4.41-14.43 9.24-22.39 13.29 2.84-6.55 8.76-10.7 13.37-15.86 2.5-2.8 5.16-5.47 7.55-8.35 1.47-1.77 1.66-3.99.44-5.97-1.34-2.19-3.81-2.35-5.74-1.58-5.98 2.39-11.76 5.26-17.7 7.73-2.28.95-4.31 3.37-8.29 1.34 11.96-9.71 23.55-19.08 35.07-28.52 2.9-2.38 5.75-4.86 8.37-7.54 1.5-1.53 2.48-3.66 1.2-5.85-1.2-2.05-3.34-2.81-5.52-2.26-3.64.91-7.28 1.96-10.75 3.37-44.73 18.28-84.91 43.86-121.14 75.74-4.83 4.25-9.49 8.8-12.73 14.49-2.77 4.87-4.55 10.14-.77 15.1 3.98 5.23 9.29 4.23 14.61 1.88 1.81-.81 3.49-2.65 6.64-.92-6.01 6.28-11.91 12.36-17.71 18.54-5.22 5.57-9.41 11.81-10.83 19.47-1.14 6.09-.81 12.08 4.88 15.93zm41.92 85.42c6.49 3.6 14.92 1.19 22.55-7.74 6.27-7.34 11.42-15.62 17.35-23.27 2.16-2.78 3.12-7.06 7.62-7.5 1.83 2.05.81 4.17.39 6.21-1.6 7.83.72 14.07 8.14 17.35 7.48 3.31 13.57-.21 18.83-5.43 1.89-1.88 3.75-3.93 5.12-6.2 25.84-42.84 55.88-83.02 80.41-126.69 3.16-5.61 5.94-11.46 8.62-17.32.9-1.98.61-4.51-1.65-5.57-1.24-.59-3.48-.58-4.53.18-3.9 2.84-7.7 5.87-11.15 9.22-16.97 16.47-33.29 33.54-50.98 50.12 4.68-7.11 9.45-14.18 14.04-21.36 5.79-9.06 11.51-18.18 17.12-27.36 1.9-3.12 4.97-6.83 1.79-10.23-4.08-4.36-7.96-.21-11.35 1.97-5.42 3.49-10.85 7.09-15.68 11.34-38.57 33.89-72.74 71.72-101.36 114.45-5.14 7.65-9.14 15.83-11.4 24.8-2.75 10.99-.52 19.33 6.12 23.03zm450.45-578.22c4.3 3.7 8.91 2.85 13.41.24 7.49-4.32 13.76-10.18 20.12-15.94 3.14-2.83 5.98-6.28 10.77-6.38-10.48 10.05-20.12 20.83-28.44 32.75-4.33 6.19-8.1 12.7-10.14 20.02-1.79 6.47-2.07 12.89 3.89 17.65 6.03 4.82 12.17 3.17 17.87-.63 4.44-2.97 8.88-6.12 12.66-9.86 31.39-31.07 57.89-66.16 83.02-102.33 1.5-2.18 2.96-4.61 3.57-7.14 1.15-4.72-1.07-7.53-6-6.54-5.86 1.18-10.88 4.52-15.78 7.8-13.33 8.91-26.58 17.96-39.86 26.96 15.02-15.29 30.27-30.35 44.91-45.99 4.28-4.58 13.72-9.51 8.05-16.58-4.19-5.23-11.93.87-17.38 3.64-37.31 19.02-67.56 46.98-96.22 76.86-3.33 3.48-6.11 7.52-7.54 12.23-1.5 4.94-1.07 9.66 3.09 13.24zm31.83 88.36c4.29 4.14 8.94 2.25 13.37-.06 6.78-3.54 11.94-9.05 17.33-14.29 3.42-3.33 6.9-6.61 11.9-11.39-.19 6.52-3.96 8.91-5.85 12.13-2.45 4.17-5.45 8.04-7.55 12.36-5.59 11.49-4.14 21.74 3.52 27.96 8.15 6.62 18.8 5.43 29.03-3.8 4.77-4.29 9.28-9.01 13.19-14.09 21.38-27.71 40.46-56.89 54.82-88.92 3.06-6.83 5.2-14.08 7.57-21.2 1.04-3.12 1.51-6.78-1.26-9.03-3.68-2.98-7.28-.37-10.15 1.9-5.47 4.33-10.64 9.03-15.83 13.69-4.74 4.24-9.34 8.63-14 12.97-1.06-.76-2.12-1.53-3.19-2.3 9.24-12.25 18.59-24.43 27.64-36.81 3.78-5.18 7.05-10.75 10.24-16.32.63-1.08.28-3.25-.41-4.46-1.32-2.33-3.75-1.88-5.66-.85-2.83 1.49-5.51 3.31-8.15 5.13-24.4 16.9-46.31 36.54-65.9 58.86-15.22 17.34-32.06 33.28-44.9 52.65-2.65 4-5.24 8.11-7.31 12.44-2.2 4.6-2.49 9.54 1.55 13.43zm143.03-472.37c-11.21 9.98-21.48 21.2-31.03 32.8-48.92 59.43-94.78 121.16-138.47 184.54-31.14 45.16-60.3 91.67-94 135.12-41.95 54.1-90.89 100.43-148.38 137.58-18.54 11.98-37.7 23.33-59.81 27.41-37.2 6.88-73.89 5.11-109.51-8.69-24.1-9.33-47.49-20.26-70.57-31.87-37-18.61-73.61-38.01-111.7-54.43-30.69-13.24-63.02-22.02-93.79-34.74-127.22-52.62-260.76-80.39-395.75-102.72-25.56-4.22-51.04-8.41-73.4-22.78-27.25-17.5-54.83-34.86-69.27-65.65-19.33-41.19-32.24-84.28-37.85-129.55-4.57-37-4.34-74.07-3.28-111.2.14-4.81.38-9.76-.5-14.45-1.19-6.29-6.35-7.97-10.54-3.31-3.9 4.34-7.06 9.49-9.86 14.67-20.52 37.84-28.96 78.09-26.12 121.23 2.75 41.73 10.34 82.07 26.86 120.62 12.79 29.85 31.4 55.07 57.99 73.99 48.67 34.61 100.06 62.68 160.38 71.94 37.22 5.71 72.83 19.1 109.68 26.82 109.17 22.82 215.93 54.17 321.52 89.81 23.47 7.92 44.07 19.3 60.72 38.03 8.54 9.6 18.64 17.85 28.32 26.4 5.66 5.01 10.75 10.47 15.78 16.1 10.65 11.93 14.93 23.61 5.05 38.9-6.61 10.24-10.88 22.29-13.41 34.45-1.81 8.78 2.8 12.45 11 8.92 5.37-2.31 10.32-5.75 15.14-9.13 20.28-14.22 39.7-29.58 58.46-45.72 7.04-6.05 13.4-7.34 21.91-3.17 11.57 5.69 23.67 10.36 36.43 12.88 53.74 10.64 105.06 1.7 153.8-21.45 56.86-27 98.23-72.47 137.21-120.19 7.15-8.76 14.02-17.63 22.16-25.53 37.51-36.42 72.42-75.17 103.17-117.49 20.23-27.85 39.44-56.45 59.17-84.67 5.55-7.93 10.77-16.34 19.6-21.1 48.44-26.07 98.27-47.14 155.22-39.02 26.75 3.8 53.02 9.14 73.71 29.03 10.11 9.74 12.92 20.29 8.3 33.54-8.12 23.23-20.58 43.71-37.25 61.71-15.45 16.68-33.4 30.44-51.66 43.75-20.68 15.08-37.52 33.54-52.39 54.28-22.93 31.97-43.68 65.29-63.91 98.95-13.34 22.2-30.67 40-53.27 52.65-14.55 8.15-28.93 16.6-43.7 24.33-27.23 14.27-53.39 30.11-77.55 49.22-34.17 27.04-68.58 53.77-102.82 80.73-19.47 15.32-38.17 31.61-55.19 49.55-45.66 48.15-87.42 99.36-119.73 157.68-2.61 4.7-5.98 8.96-8.76 13.56-19.25 31.82-47.01 54.01-79.37 71.4-36.23 19.46-75.51 27.73-115.65 33.19-13.92 1.89-26.73-.99-38.19-9.38-14.31-10.47-29.22-20.11-42.47-32.06-41.97-37.81-81.27-78.46-124.16-115.29-36.32-31.19-71.91-63.21-107.7-95.01-22.97-20.4-49.33-36.39-72.69-56.31-17.2-14.67-35.31-28.16-53.95-40.98-43.49-29.88-88.71-57-133.52-84.76-81.4-50.44-165.26-96.78-245.83-148.64-38.219-24.59-68.242-55.52-85.906-97.76-6.453-15.42-10.739-31.55-15.766-47.44-3.305-10.45-4.344-20.95-3.894-31.82 1.386-33.4 11.464-64.4 25.468-94.39 36.899-79.05 68.321-160.33 97.621-242.44 27.517-77.1 59.617-152.33 94.777-226.13 34.02-71.39 72.51-140.57 111.98-209.11 37.04-64.34 76.35-127.41 112.02-192.48 27.55-50.28 59.28-97.32 94.83-142.02 9.04-11.36 18.61-22.29 27.8-33.54 1.96-2.4 4.57-5.47 1.9-8.55-2.75-3.16-6.06-.7-8.65.91-14.2 8.85-27.21 19.22-39.43 30.66-29.2 27.32-54.06 58.39-78.37 89.96-3.14 4.07-5.3 9.3-12.01 11.38-.04-6.19 2.54-10.93 4.14-15.87 9.44-29.17 19.05-58.3 28.31-87.52 10.56-33.33 20.15-66.99 31.37-100.09 16.29-48.06 36.43-94.43 67.13-135.33 26.62-35.469 59.47-65.07 91.78-95.109 3.13-2.911 6.79-5.321 10.47-7.532 42.99-25.73 87.24-48.961 134.14-66.898 55.96-21.402 114.06-35.199 172.36-48.109 39.81-8.821 80.02-8.922 120.25-2.243 82.99 13.782 156.53 49.371 224.47 97.629 31.76 22.571 60.31 49.024 82.95 80.692 20.29 28.41 37.59 58.941 53.66 90.05 4.06 7.85 5.95 15.94 5.89 24.79-.27 38.17.2 76.29-2.09 114.49-4.38 73.16-18.01 143.9-46.98 211.51-5.85 13.67-12.23 26.01-25.27 34.25-4.86 3.08-8.81 7.9-12.5 12.47-12.16 15.08-24.04 30.36-35.95 45.64-11.72 15.02-20.3 31.75-25.5 50.03a806.706 806.706 0 0 0-11.83 46.92c-12.18 55.23-8.07 110.21 4.69 164.65 6.18 26.41 6.81 27.16-17.36 39.66-1.43.73-2.98 1.26-4.39 2.04-28.26 15.54-57.48 29.45-83.47 48.87-2.08 1.56-4.2 3.48-7.09 1.49-2.06-3.2-.24-6.27.36-9.33 6.37-32.26 9.52-64.84 10.62-97.7 2.37-70.78-5.36-140.72-17.18-210.3-6.79-39.99-17.57-78.77-37.83-114.33-2.46-4.34-4.03-11.95-10.62-9.83-6.3 2.06-3.72 9.34-3.26 14.28 2.37 25.7 4.95 51.38 7.9 77.01 5.54 48.1 9.3 96.36 10.67 144.72 1.46 51.64-.5 103.26-6.05 154.66-1.82 16.82-3.87 33.73-9.13 50.29-5.81-2.59-5.84-7.5-7.45-11.25-22.7-53.09-50.29-103.48-82.85-151.2-25.54-37.45-53.22-73.06-87.03-103.52-5.59-5.03-11.22-10.08-17.28-14.52-3.62-2.64-7.89-7.4-12.74-2.98-4.07 3.71-.33 8.15 1.43 11.75 4.74 9.65 9.93 19.08 15.02 28.57 26.98 50.3 59.52 97.26 87.93 146.73 31.38 54.63 61.48 109.82 84.37 168.72 3.89 9.99 3.78 18.03-1.51 27.27-7.48 13.06-13.69 26.84-18.85 41.03-2.04 5.58-3.67 11.27-2.8 17.34 2.12 14.81 15.34 20.69 27.23 11.64 5.52-4.19 10.27-9.48 14.96-14.65 43.04-47.44 89.28-91.76 134.58-136.98 19.64-19.61 39.93-38.79 63.95-53.86 16.57-10.4 22.86-28.9 20.07-48.08-4.27-29.45-5.38-58.9-4.82-88.5 1.14-61.23 15.82-117.6 55-166.81 21.14-26.55 46.48-46.05 77.12-59.15 27.12-11.59 63.35 11.55 60.99 39.87-1.07 12.85-1.61 25.75-2.32 38.64-.36 6.43-1.4 12.95-.72 19.29 5.98 56.12 6.81 112.71 15.51 168.59 2.81 18.06 4.34 36.32 7.23 54.36 3.7 23.1 13.1 44.16 23.99 64.76 12.84 24.3 14.47 48.96.39 73.92-8.23 14.61-17.36 28.48-28.26 41.15-42.11 48.92-84.16 97.87-126.51 146.57-29.03 33.38-55.74 68.39-77.52 106.98-7.94 14.05-15.2 28.47-23.17 42.51-5.37 9.45-12.16 17.99-22.21 22.81-24.43 11.69-49.91 20.35-77.13 21.92-40.65 2.34-80.66-2.61-119.53-14.48-60.22-18.39-119.74-38.87-177.31-64.53-94.47-42.13-194.57-61.12-296.46-72.96-40.03-4.66-80.1-9.07-119.84-15.96-40.05-6.94-65.4-31.57-78.73-68.36-11.37-31.38-17.61-64.25-20.81-97.6-3.03-31.59-6.25-63.16-12.56-94.3-.95-4.71-2.11-9.52-4.17-13.82-2.37-4.92-7.05-5.02-10.05-.36-2.01 3.11-3.28 6.77-4.46 10.32-5.13 15.32-9.22 30.94-11.73 46.92-5.72 36.38-4.27 73.04-2.14 109.51 1.74 29.82 10.3 58.12 27.09 83.51 29.21 44.18 66.69 74.83 121.61 81.5 47.49 5.77 94.58 14.71 141.92 21.67 64.61 9.49 128.11 24.27 189.48 46.01 70.99 25.14 141.91 50.24 213.95 72.35 43.51 13.36 87.38 22.72 132.57 26.29 18.76 1.5 37.92 2.75 56.03-3.62 51.99-18.25 97.73-44.82 124.43-96.11 9.45-18.16 20.71-35.26 33.59-51.22 27.04-33.52 54.95-66.27 85.78-96.41 30.82-30.13 59.63-62.04 87.03-95.28 1.96-2.38 3.56-5.61 7.53-5.12 13.44 17.1 24.81 16.28 35.23-2.72 2.82-5.17 5.05-10.71 7.14-16.22 15.89-42 26.1-85.39 30.74-129.98 1.99-19.25 1.84-38.7.73-58.06-.21-3.71-.69-7.99-5.63-8.43-3.9-.34-5.44 3.03-6.71 5.98-2.32 5.43-4.33 11-6.57 16.48-2.36 5.74-2.45 12.54-6.91 17.16-4.71-1.04-5.11-4.58-6.47-7.35-15.57-31.69-22.08-66.22-31.22-99.93-1.29-4.74-.76-9.59.03-14.41 6.76-41.2 43.15-79.76 83.99-88.83 35.63-7.9 64.97 2.94 87.59 31.03 19.13 23.77 15.23 50.17 6.35 76.61-1.2 3.55-2.79 7.01-4.49 10.36-5.37 10.55-10.42 21.29-16.43 31.47-14.34 24.27-24.95 50.06-32.17 77.23-5.24 19.76-9.84 39.68-14.49 59.58-10.49 44.93-17.69 90.63-37.01 133.28-14.31 31.58-28.57 62.52-55.13 86.21M3086.94 2805.68c-97.89-46.29-200.67 19.18-215.95 116.11-8 50.69 16.13 120.42 77.31 150.06 21.83 10.57 42.96 22.15 67.6 24.84 12.83 1.41 25.23.81 38.64-5.35-7.85-6.96-14.85-12.54-21.13-18.84-15.72-15.79-18.72-34.63-9.21-54.64 8.44-17.75 27.55-29.36 45.4-27.6 19.43 1.92 36.69 17.17 42.65 36.61 3.13 10.25 1.17 21.12 3.68 30.94 5.81 1.49 7.93-2.29 10.44-4.76 81.4-80.29 52.33-203.99-39.43-247.37zm71.4 12.15c50.37 57.11 60.97 122.25 32.52 192.12-18.57 45.62-54.92 75.75-97.76 98.99-31.32 16.98-64.58 21.31-98.52 16.08-96.42-14.85-157.37-88.33-157.52-181.06-3.54-101.34 79.92-203.15 212.15-186.66 43.75 5.45 80.1 27.62 109.13 60.53" style="fill:#fff;fill-opacity:1;fill-rule:nonzero;stroke:none" transform="matrix(.13333 0 0 -.13333 0 666.667)"/><path d="M3226.23 2413.02c-79.69-34.04-163.02-46.99-249.09-41.71-91.08 5.58-176.76 31.07-255.98 76.32-67.03 38.29-120.43 91.84-163.44 155.5-45.4 67.23-75.84 140.93-90.69 220.85a582.128 582.128 0 0 0-4.79 30.26c-3.33 25.1-4.4 50.34-4.09 66.58-.51 87.06 14.11 161.93 45.92 233.32 6.58 14.77 13.72 29.25 22.3 42.92 21.42 34.16 42.41 68.62 67.16 100.58 24.95 32.23 55.34 58.64 88.39 82.01 76.78 54.3 161.26 89.46 254.62 103.68 97.11 14.79 190.84 4.84 281.29-33.8 113.68-48.56 205.39-123.48 267.92-230.68 39.02-66.91 63.87-139.74 75.42-216.69 3.12-20.73 5.53-41.49 6.13-62.54 2.44-84.6-17.67-164.03-52.7-240.45-25.28-55.17-56.18-106.45-97.52-151.2-54.08-58.54-117.53-103.63-190.85-134.95zm352.61 235.73c52.25 97.3 74.29 202.06 68.84 312.73-2.05 41.6-7.64 82.44-17.39 122.75-33.24 137.46-103.43 251.93-214.79 339.84-63.06 49.78-133.9 85.58-209.81 111.79-83.7 28.9-169.92 38.58-257.62 31.66-60.8-4.8-119.28-20.8-176.02-44.32-81.72-33.87-154.43-80.71-215.89-144.1-53.64-55.32-94.63-119.4-126.97-189.43-37.56-81.35-59.69-165.74-57.09-255.89.18-24.69.45-49.36 3.29-74.04 7.24-62.94 23.1-123.58 46.03-182.51 1.75-4.51 3.23-9.36 7.49-12.17 15.83-10.42 28.77-24 42.46-36.92 14.17-13.38 27.82-26.96 38.73-43.05 19.02-28.04 37.55-56.42 56.38-84.59 12.31-18.41 26.37-35.15 43.62-49.39 14.9-12.31 29.93-24.93 42.5-39.48 15.12-17.5 33.88-29.39 53.2-40.75 41.15-24.2 86.24-38.67 131.86-51.57 12.38-3.51 25.06-7.45 37.76-8.06 24.81-1.19 49.09-5.81 73.63-8.69 17.06-1.99 34.31-4.01 51.42-3.62 36.53.84 73.08 2.34 109.23 8.69 29.63 5.2 59.64 8.67 88.08 19.29 33.27 12.44 65.89 26.26 97.9 41.77 126.32 61.21 217.67 158.09 283.16 280.06M4237.21 2621.43c-3.8 16.62-6.91 19.85-23.02 16.7-15.72-3.06-31.85-3.59-47.27-9.06-15.66-5.55-31.94-9.59-48.18-13.29-87.01-19.81-174.56-37.06-260.69-60.87-72.01-19.91-145.47-34.44-217.31-55.13-39.24-11.3-77.52-26.01-118.17-32-6.98-1.02-11.5-5.34-16.09-9.93-34.28-34.35-71.57-65.12-111.38-92.85-2.86-2-7.23-2.87-7.47-8.03 6.03-2.28 11.56.45 17.05 1.95 47.25 12.89 95.3 22.19 143.43 31.07 22.73 4.19 45.61 7.58 67.71 14.69 53.79 17.28 108.24 32.15 163.16 45.34 37.62 9.02 73.9 23.46 112.47 28.64 32.02 4.31 63.56 10.82 94.95 18.38 17.23 4.14 34.6 7.97 52.1 10.79 64.94 10.46 127.91 28.91 191 46.84 17.03 4.84 18.83 9.42 16.36 27.41-1.84 13.37-5.66 26.26-8.65 39.35" style="fill:#fff;fill-opacity:1;fill-rule:nonzero;stroke:none" transform="matrix(.13333 0 0 -.13333 0 666.667)"/><path d="M4229.5 2554.67c-63.09-17.93-126.06-36.38-191-46.84-17.5-2.82-34.87-6.65-52.1-10.79-31.39-7.56-62.93-14.07-94.95-18.38-38.57-5.18-74.85-19.62-112.47-28.64-54.92-13.19-109.37-28.06-163.16-45.34-22.1-7.11-44.98-10.5-67.71-14.69-48.13-8.88-96.18-18.18-143.43-31.07-5.49-1.5-11.02-4.23-17.05-1.95.24 5.16 4.61 6.03 7.47 8.03 39.81 27.73 77.1 58.5 111.38 92.85 4.59 4.59 9.11 8.91 16.09 9.93 40.65 5.99 78.93 20.7 118.17 32 71.84 20.69 145.3 35.22 217.31 55.13 86.13 23.81 173.68 41.06 260.69 60.87 16.24 3.7 32.52 7.74 48.18 13.29 15.42 5.47 31.55 6 47.27 9.06 16.11 3.15 19.22-.08 23.02-16.7 2.99-13.09 6.81-25.98 8.65-39.35 2.47-17.99.67-22.57-16.36-27.41zm-1031.72-227.75c-28.44-10.62-58.45-14.09-88.08-19.29-36.15-6.35-72.7-7.85-109.23-8.69-17.11-.39-34.36 1.63-51.42 3.62-24.54 2.88-48.82 7.5-73.63 8.69-12.7.61-25.38 4.55-37.76 8.06-45.62 12.9-90.71 27.37-131.86 51.57-19.32 11.36-38.08 23.25-53.2 40.75-12.57 14.55-27.6 27.17-42.5 39.48-17.25 14.24-31.31 30.98-43.62 49.39-18.83 28.17-37.36 56.55-56.38 84.59-10.91 16.09-24.56 29.67-38.73 43.05-13.69 12.92-26.63 26.5-42.46 36.92-4.26 2.81-5.74 7.66-7.49 12.17-22.93 58.93-38.79 119.57-46.03 182.51-2.84 24.68-3.11 49.35-3.29 74.04-2.6 90.15 19.53 174.54 57.09 255.89 32.34 70.03 73.33 134.11 126.97 189.43 61.46 63.39 134.17 110.23 215.89 144.1 56.74 23.52 115.22 39.52 176.02 44.32 87.7 6.92 173.92-2.76 257.62-31.66 75.91-26.21 146.75-62.01 209.81-111.79 111.36-87.91 181.55-202.38 214.79-339.84 9.75-40.31 15.34-81.15 17.39-122.75 5.45-110.67-16.59-215.43-68.84-312.73-65.49-121.97-156.84-218.85-283.16-280.06-32.01-15.51-64.63-29.33-97.9-41.77zm-256.81-84.04c-72.25-20.93-145.22-39.09-218.43-56.2-43.38-10.13-87.28-18.04-130.88-27.25-16.81-3.54-33.5-7.67-50.11-12.02-9.84-2.58-17.57-.84-24.51 7.07-10.09 11.5-20.5 22.67-31.09 37.36 9.86-.38 15.48-3.66 21.43-5.48 50.67-15.61 100.16-11.51 146.84 12.69 30.77 15.95 49.63 42.08 51.51 78.31.67 12.62 1.45 13.17 13.57 16.02 2.6.61 5.29 1 7.86 1.77 16.52 4.95 31.75 3.44 48.27-3.27 26.28-10.68 53.65-18.9 81.46-25.27 16.72-3.83 32.29-11.91 49.59-13.76 14.39-1.52 28.75-3.17 44.36-4.91-2.88-4.21-6.66-4.13-9.87-5.06zm-353.41-367.53c4.65-19.9 9.25-39.82 14.49-59.58 7.22-27.17 17.83-52.96 32.17-77.23 6.01-10.18 11.06-20.92 16.43-31.47 1.7-3.35 3.29-6.81 4.49-10.36 8.88-26.44 12.78-52.84-6.35-76.61-22.62-28.09-51.96-38.93-87.59-31.03-40.84 9.07-77.23 47.63-83.99 88.83-.79 4.82-1.32 9.67-.03 14.41 9.14 33.71 15.65 68.24 31.22 99.93 1.36 2.77 1.76 6.31 6.47 7.35 4.46-4.62 4.55-11.42 6.91-17.16 2.24-5.48 4.25-11.05 6.57-16.48 1.27-2.95 2.81-6.32 6.71-5.98 4.94.44 5.42 4.72 5.63 8.43 1.11 19.36 1.26 38.81-.73 58.06-4.64 44.59-14.85 87.98-30.74 129.98-2.09 5.51-4.32 11.05-7.14 16.22-10.42 19-21.79 19.82-35.23 2.72-3.97-.49-5.57 2.74-7.53 5.12-27.4 33.24-56.21 65.15-87.03 95.28-30.83 30.14-58.74 62.89-85.78 96.41-12.88 15.96-24.14 33.06-33.59 51.22-26.7 51.29-72.44 77.86-124.43 96.11-18.11 6.37-37.27 5.12-56.03 3.62-45.19-3.57-89.06-12.93-132.57-26.29-72.04-22.11-142.96-47.21-213.95-72.35-61.37-21.74-124.87-36.52-189.48-46.01-47.34-6.96-94.43-15.9-141.92-21.67-54.92-6.67-92.4-37.32-121.61-81.5-16.79-25.39-25.35-53.69-27.09-83.51-2.13-36.47-3.58-73.13 2.14-109.51 2.51-15.98 6.6-31.6 11.73-46.92 1.18-3.55 2.45-7.21 4.46-10.32 3-4.66 7.68-4.56 10.05.36 2.06 4.3 3.22 9.11 4.17 13.82 6.31 31.14 9.53 62.71 12.56 94.3 3.2 33.35 9.44 66.22 20.81 97.6 13.33 36.79 38.68 61.42 78.73 68.36 39.74 6.89 79.81 11.3 119.84 15.96 101.89 11.84 201.99 30.83 296.46 72.96 57.57 25.66 117.09 46.14 177.31 64.53 38.87 11.87 78.88 16.82 119.53 14.48 27.22-1.57 52.7-10.23 77.13-21.92 10.05-4.82 16.84-13.36 22.21-22.81 7.97-14.04 15.23-28.46 23.17-42.51 21.78-38.59 48.49-73.6 77.52-106.98 42.35-48.7 84.4-97.65 126.51-146.57 10.9-12.67 20.03-26.54 28.26-41.15 14.08-24.96 12.45-49.62-.39-73.92-10.89-20.6-20.29-41.66-23.99-64.76-2.89-18.04-4.42-36.3-7.23-54.36-8.7-55.88-9.53-112.47-15.51-168.59-.68-6.34.36-12.86.72-19.29.71-12.89 1.25-25.79 2.32-38.64 2.36-28.32-33.87-51.46-60.99-39.87-30.64 13.1-55.98 32.6-77.12 59.15-39.18 49.21-53.86 105.58-55 166.81-.56 29.6.55 59.05 4.82 88.5 2.79 19.18-3.5 37.68-20.07 48.08-24.02 15.07-44.31 34.25-63.95 53.86-45.3 45.22-91.54 89.54-134.58 136.98-4.69 5.17-9.44 10.46-14.96 14.65-11.89 9.05-25.11 3.17-27.23-11.64-.87-6.07.76-11.76 2.8-17.34 5.16-14.19 11.37-27.97 18.85-41.03 5.29-9.24 5.4-17.28 1.51-27.27-22.89-58.9-52.99-114.09-84.37-168.72-28.41-49.47-60.95-96.43-87.93-146.73-5.09-9.49-10.28-18.92-15.02-28.57-1.76-3.6-5.5-8.04-1.43-11.75 4.85-4.42 9.12.34 12.74 2.98 6.06 4.44 11.69 9.49 17.28 14.52 33.81 30.46 61.49 66.07 87.03 103.52 32.56 47.72 60.15 98.11 82.85 151.2 1.61 3.75 1.64 8.66 7.45 11.25 5.26-16.56 7.31-33.47 9.13-50.29 5.55-51.4 7.51-103.02 6.05-154.66-1.37-48.36-5.13-96.62-10.67-144.72-2.95-25.63-5.53-51.31-7.9-77.01-.46-4.94-3.04-12.22 3.26-14.28 6.59-2.12 8.16 5.49 10.62 9.83 20.26 35.56 31.04 74.34 37.83 114.33 11.82 69.58 19.55 139.52 17.18 210.3-1.1 32.86-4.25 65.44-10.62 97.7-.6 3.06-2.42 6.13-.36 9.33 2.89 1.99 5.01.07 7.09-1.49 25.99-19.42 55.21-33.33 83.47-48.87 1.41-.78 2.96-1.31 4.39-2.04 24.17-12.5 23.54-13.25 17.36-39.66-12.76-54.44-16.87-109.42-4.69-164.65 3.47-15.74 7.42-31.41 11.83-46.92 5.2-18.28 13.78-35.01 25.5-50.03 11.91-15.28 23.79-30.56 35.95-45.64 3.69-4.57 7.64-9.39 12.5-12.47 13.04-8.24 19.42-20.58 25.27-34.25 28.97-67.61 42.6-138.35 46.98-211.51 2.29-38.2 1.82-76.32 2.09-114.49.06-8.85-1.83-16.94-5.89-24.79-16.07-31.109-33.37-61.64-53.66-90.05-22.64-31.668-51.19-58.121-82.95-80.692-67.94-48.258-141.48-83.847-224.47-97.629-40.23-6.679-80.44-6.578-120.25 2.243-58.3 12.91-116.4 26.707-172.36 48.109-46.9 17.937-91.15 41.168-134.14 66.898-3.68 2.211-7.34 4.621-10.47 7.532-32.31 30.039-65.16 59.64-91.78 95.109-30.7 40.9-50.84 87.27-67.13 135.33-11.22 33.1-20.81 66.76-31.37 100.09-9.26 29.22-18.87 58.35-28.31 87.52-1.6 4.94-4.18 9.68-4.14 15.87 6.71-2.08 8.87-7.31 12.01-11.38 24.31-31.57 49.17-62.64 78.37-89.96 12.22-11.44 25.23-21.81 39.43-30.66 2.59-1.61 5.9-4.07 8.65-.91 2.67 3.08.06 6.15-1.9 8.55-9.19 11.25-18.76 22.18-27.8 33.54-35.55 44.7-67.28 91.74-94.83 142.02-35.67 65.07-74.98 128.14-112.02 192.48-39.47 68.54-77.96 137.72-111.98 209.11-35.16 73.8-67.26 149.03-94.777 226.13-29.3 82.11-60.722 163.39-97.621 242.44-14.004 29.99-24.082 60.99-25.468 94.39-.45 10.87.589 21.37 3.894 31.82 5.027 15.89 9.313 32.02 15.766 47.44 17.664 42.24 47.687 73.17 85.906 97.76 80.57 51.86 164.43 98.2 245.83 148.64 44.81 27.76 90.03 54.88 133.52 84.76 18.64 12.82 36.75 26.31 53.95 40.98 23.36 19.92 49.72 35.91 72.69 56.31 35.79 31.8 71.38 63.82 107.7 95.01 42.89 36.83 82.19 77.48 124.16 115.29 13.25 11.95 28.16 21.59 42.47 32.06 11.46 8.39 24.27 11.27 38.19 9.38 40.14-5.46 79.42-13.73 115.65-33.19 32.36-17.39 60.12-39.58 79.37-71.4 2.78-4.6 6.15-8.86 8.76-13.56 32.31-58.32 74.07-109.53 119.73-157.68 17.02-17.94 35.72-34.23 55.19-49.55 34.24-26.96 68.65-53.69 102.82-80.73 24.16-19.11 50.32-34.95 77.55-49.22 14.77-7.73 29.15-16.18 43.7-24.33 22.6-12.65 39.93-30.45 53.27-52.65 20.23-33.66 40.98-66.98 63.91-98.95 14.87-20.74 31.71-39.2 52.39-54.28 18.26-13.31 36.21-27.07 51.66-43.75 16.67-18 29.13-38.48 37.25-61.71 4.62-13.25 1.81-23.8-8.3-33.54-20.69-19.89-46.96-25.23-73.71-29.03-56.95-8.12-106.78 12.95-155.22 39.02-8.83 4.76-14.05 13.17-19.6 21.1-19.73 28.22-38.94 56.82-59.17 84.67-30.75 42.32-65.66 81.07-103.17 117.49-8.14 7.9-15.01 16.77-22.16 25.53-38.98 47.72-80.35 93.19-137.21 120.19-48.74 23.15-100.06 32.09-153.8 21.45-12.76-2.52-24.86-7.19-36.43-12.88-8.51-4.17-14.87-2.88-21.91 3.17-18.76 16.14-38.18 31.5-58.46 45.72-4.82 3.38-9.77 6.82-15.14 9.13-8.2 3.53-12.81-.14-11-8.92 2.53-12.16 6.8-24.21 13.41-34.45 9.88-15.29 5.6-26.97-5.05-38.9-5.03-5.63-10.12-11.09-15.78-16.1-9.68-8.55-19.78-16.8-28.32-26.4-16.65-18.73-37.25-30.11-60.72-38.03-105.59-35.64-212.35-66.99-321.52-89.81-36.85-7.72-72.46-21.11-109.68-26.82-60.32-9.26-111.71-37.33-160.38-71.94-26.59-18.92-45.2-44.14-57.99-73.99-16.52-38.55-24.11-78.89-26.86-120.62-2.84-43.14 5.6-83.39 26.12-121.23 2.8-5.18 5.96-10.33 9.86-14.67 4.19-4.66 9.35-2.98 10.54 3.31.88 4.69.64 9.64.5 14.45-1.06 37.13-1.29 74.2 3.28 111.2 5.61 45.27 18.52 88.36 37.85 129.55 14.44 30.79 42.02 48.15 69.27 65.65 22.36 14.37 47.84 18.56 73.4 22.78 134.99 22.33 268.53 50.1 395.75 102.72 30.77 12.72 63.1 21.5 93.79 34.74 38.09 16.42 74.7 35.82 111.7 54.43 23.08 11.61 46.47 22.54 70.57 31.87 35.62 13.8 72.31 15.57 109.51 8.69 22.11-4.08 41.27-15.43 59.81-27.41 57.49-37.15 106.43-83.48 148.38-137.58 33.7-43.45 62.86-89.96 94-135.12 43.69-63.38 89.55-125.11 138.47-184.54 9.55-11.6 19.82-22.82 31.03-32.8 26.56-23.69 40.82-54.63 55.13-86.21 19.32-42.65 26.52-88.35 37.01-133.28zm-126.53-405.21c-14.49-102.21-41.56-201.05-81.3-296.36-1.37-3.29-1.72-7.34-5.89-9.84-2.36 20.38-4.59 40.43-7.02 60.44-5.39 44.52-15.69 87.84-31.69 129.76-.57 1.51-1.22 3-1.69 4.53-2.74 8.9-1.29 11.06 7.76 9.47 12.35-2.16 24.63-1.91 36.95-.38 47.05 5.84 70.84 45.26 75.55 86.2 2.76 24.03 2.98 48.29 2.79 72.5-.16 20.41 2.06 40.6 4.44 62.19 8.04-5.11 7.66-12.07 7.73-18.89.3-33.43-2.95-66.64-7.63-99.62zM1011.78 2614.98c9.01 31.67 12.71 64.34 17.81 96.7 9.3 58.96 15.7 118.3 21.64 177.67 1.55 15.47 1.4 31.17 1.2 46.76-.52 41.98 1.54 83.7 6.69 125.46 7.2 58.55 4.95 117.05-7.95 174.84-9.29 41.61-12.71 83.91-15.38 126.3-2.46 39 8.76 74.24 29.28 107.08 7.93 12.7 19.29 21.67 30.53 30.75 73.23 59.15 145.18 119.84 217.14 180.5 27.12 22.87 53.62 46.47 79.45 70.88 21.86 20.65 44.38 40.72 67.13 60.38 22.96 19.84 42.7 42.45 62.52 65.07 9.22 10.54 18.66 20.8 28.34 30.9 19.67 20.51 44.11 29.69 71.96 31.87 45.12 3.53 88.83-4.64 132.61-14.07 55.72-11.99 111.79-23.14 168.77-26.22 46.21-2.5 91.68-12.31 138.08-12.16 13.57.04 27.76-1.52 34.61-15.93 8.32-17.5 12.66-35.74 1.99-54.01-19.84-33.99-47.78-59-83.45-75.83-66.57-31.39-136.23-52.89-208.43-66.56-18.15-3.44-36.53-2.9-54.72-2.03-36.39 1.77-64.41-13.22-87.48-40.02-6.65-7.74-13.97-14.91-21.17-22.17-42.4-42.81-84.15-86.34-122.25-133.01-26.49-32.45-50.75-66.76-74.9-101.08-14.97-21.27-17.28-43.51-11.12-67.48 5.91-22.96 15.38-44.76 23.78-66.86 20.86-54.88 38.23-110.8 51.67-167.94 9.98-42.46 9.17-85.23 3.52-128.18-1.08-8.24-5.46-13.64-10.71-19.17-43.22-45.55-92.55-83.87-145.26-117.34-73.1-46.4-147.69-90.46-221.7-135.42-6.76-4.1-13.45-8.63-20.91-10.4-3.6 3.43-2.07 6.73-1.84 9.78 1.53 20.37 3.26 40.73 4.69 61.11.47 6.53 4.51 16.24-4.03 18.14-7.89 1.75-9.56-8.61-12.37-14.61-7.98-17.12-13.22-35.22-18.2-53.39-1.22-4.45-2.37-8.91-5.48-12.92 1.46 14.92 2.61 29.87 4.45 44.74 3.38 27.34 2.41 54.79 2.83 82.21.05 3.19-.05 6.6-1.13 9.53-1.39 3.8-4.58 4.38-7.52 1.45-3.52-3.51-4.85-8.3-6.53-12.83-15.51-41.99-25.94-85.37-35.06-129.1-2.96-14.21-6.21-28.4-8.29-42.75-1.46-10.12-5.8-17.01-16.28-20.64-2.01 3.72.58 6.88 1.47 10zm1123.96 1167.05c7.61 21.7 23.99 27.29 44.16 30.39 31.27 4.8 62.37 10.9 93.37 17.24 18.91 3.87 37.6 8.9 56.22 14.01 18.9 5.19 36.03-.29 53-7.54 1.18-.51 1.76-2.43 3.35-4.77-1.39-.9-2.6-2.14-4.05-2.54-87.4-24.1-174.81-48.13-263.87-72.61 6.4 8.99 14.57 16.54 17.82 25.82zm325.15 9.22c97.72 27.92 195.63 55.25 293.96 80.9 112.38 29.31 225.31 56.41 338.48 82.59 164.98 38.16 330.17 75.71 492.41 124.76 42.74 12.91 86.65 21.42 129.32 34.7 21.45 6.69 44.04 5.2 65.65 2.21 16.14-2.23 28.98-12.78 34.71-30.08 12.2-36.8 21.63-74.34 31.16-111.87 7.55-29.7 14.64-59.54 22.89-89.05 10-35.74 20.31-71.34 27.02-107.93 3-16.34 8.85-32.12 12.6-48.34 3.14-13.56 2.41-14.78-10.17-19.15-16.24-5.65-32.65-10.91-49.21-15.54-10.13-2.82-12.7-1.45-14.89 8.85-11.16 52.66-30.97 102.92-42.13 155.64-9.94 46.85-25.21 92.32-41.9 137.24-1.86 5.03-3.94 10.03-6.41 14.8-7.64 14.76-19.15 22.69-36.53 20.79-35.25-3.85-70.96-5.32-104.9-16.71-44.04-14.77-89.77-22.14-135-31.52-57.48-11.91-114.13-26.4-169.83-45.17-65.74-22.14-131.47-44.58-198.65-62.07-46.82-12.19-94.39-21.54-141.24-33.66-102.05-26.42-203.43-55.27-304.64-84.83-106.32-31.06-213.3-60.09-321.92-82.42-15.28-3.15-30.32-7.27-45.17-12.12-12.76-4.17-25.66-7.92-38.98-10.17-26.23-4.44-36.76-18.87-33.13-45.61 2.47-18.12 5.74-36.11 8.61-54.16 9.64-60.61 23.05-120.41 38.76-179.69 5.1-19.2 12.46-37.79 18.37-56.79 3.36-10.8 2.61-12.5-7.75-14.95-90.63-21.31-178.51-52.52-268.9-74.64-104.48-25.57-207.33-57.35-312.23-81.24-37.78-8.6-75.15-18.68-112.48-28.97-4.66-1.28-9.43-2.14-14.13-3.31-5.24-1.3-8.39.75-9.44 5.89-1.51 7.37-2.61 14.82-4.26 22.15-12.7 56.43-32.61 110.34-57.92 162.2-18.15 37.19-18.04 41.38 5.68 74.43 24.51 34.17 52.2 65.58 80.54 96.56 33.05 36.11 65.63 72.63 100.86 106.66 3.86 3.74 7.6 7.61 11.39 11.44 16.61 16.75 35.43 27.89 60.3 24.39 4.22-.59 8.6-.09 16.19-.09 46.93-1.87 95.48 7.67 142.02 25.28 35.52 13.44 72.25 21.39 109.13 27.95 69.6 12.38 137.21 31.86 204.39 52.99 78.53 24.72 158.26 45.07 237.37 67.66zm748.77 318.71c41.45 18.26 84.4 31.91 128.45 42.33 34.51 8.16 69.1 15.71 104.3 20.48 23.98 3.26 46.49 13.32 70.58 16.44 12.77 1.65 25.49 3.98 38.3 5.04 15.11 1.25 29.78 4.09 44.12 8.87 16.93 5.63 34.62 7.44 51.27 10.43 9.35-1.09 17.87-2.04 26.4-3.08 4.12-.49 6.77-3.03 8.46-6.65 1.14-2.43 2.34-4.87 3.05-7.44 12.14-44.02 11.74-35.34-23.24-49.17-16.63-6.57-34.23-9.22-51.52-13.04-56.17-12.41-111.24-29.21-167.21-42.32-61.25-14.35-121.41-32.67-182.27-48.44-10.9-2.83-22.14-4.3-33.1-6.91-8.2-1.95-13.52-.09-15.97 8.54-4.41 15.49-9.82 30.74-12.04 46.78-1.71 12.41-1.34 12.97 10.42 18.14zm69.58-454.36c38.11 49.35 73 101.1 113.12 148.96 34.71 41.39 34.21 41.85 86.3 54.48 20.36 4.93 40.8 9.61 61.21 14.36 3.01.7 6.08 2.48 10.31-1-5.13-6.62-10.4-13.23-15.45-19.99-33.77-45.29-72.86-86.18-107.83-130.5-34.32-43.49-67.11-88.08-98.02-134.03-4.5-6.68-8.51-13.7-12.4-20.76-3.24-5.88-7.22-6.58-13.35-4.21-16.74 6.46-28.93 15.38-34.02 34.79-8.35 31.87-10.05 31.78 10.13 57.9zm365.47 178.84c-5.33-3.48-10.01-8.18-14.33-12.91-29.36-32.23-60.64-62.53-92.43-92.29-39.89-37.35-74.55-79.02-103.36-125.34-9.03-14.53-20.37-20.98-40.4-19.95 79.47 103.57 166.02 197.2 254.3 288.28 5.92-2.28 5.7-6.03 6.38-8.92 4.74-20.05 5.79-18.4-10.16-28.87zm45.12-135.03c3.44 4.1 6.64 2.07 8.33-2.45.38-1 .55-2.08.89-3.1 10.74-32.03 10.74-32.02-21.67-40.01-8.23-2.03-16.45-4.09-24.67-6.14-.65 1.02-1.29 2.03-1.95 3.05 11.61 17.31 25.7 32.72 39.07 48.65zm-1539.78-553.99c4.54-8.32 13.08-6.75 20.2-5.79 19.69 2.66 39.25 6.31 58.88 9.43 12.8 2.04 15.71-.95 12.33-13.6-4.53-16.94-13.94-31.47-24.72-44.95-27.64-34.57-58.68-65.82-93.91-92.7-11.1-8.46-21.17-18.36-33.5-25.13-13.32-7.31-15.34-7.26-23.76 5.04-22.87 33.38-50.07 63.2-76.31 93.79-26.72 31.14-61.92 49.28-99.74 63.14-4.34 1.59-9.52 1.49-12.96 5.53 12.41 7.03 486.35 135.88 512.35 139.16.04-9.6-5.31-17.25-8.29-25.41-10.91-29.85-4.74-25.37-37.16-32.26-61.9-13.13-120.14-37.02-178.67-60.09-12.27-4.84-17.53-11.03-14.74-16.16zm1024.3 637.5c2.21-7.18 5.29-14.09 7.81-21.18 18.05-50.75 27.25-104.04 44.61-154.99 1.11-3.29 3.23-6.98.66-10.97-6.03-1.84-11.38 1.32-16.91 2.87-54.58 15.31-110 24.18-166.79 26.85-102.82 4.85-201.49-13.98-296.83-50.41-63.7-24.34-121.08-60.77-173.92-103.84-40.96-33.39-78-70.91-110.85-112.37-7.03-8.88-14.37-14.51-26.33-15.97-14.84-1.83-29.28-6.83-43.94-10.21-9.38-2.16-11.4-1.03-13.93 8.16-13.62 49.68-33.82 97.36-44.89 147.84-2.99 13.64-7.34 27.02-8.55 41-.95 10.92.62 12.92 11.14 16.24 8.2 2.59 16.54 4.72 24.82 7.08 84.83 24.1 169.62 48.35 254.51 72.25 36.32 10.22 71.4 23.9 106.63 37.14 41.89 15.74 85.13 26.76 128.14 38.66 88.62 24.54 177.17 49.28 265.74 74.04 5.14 1.44 10.11 3.58 15 5.76 1.89.85 3.33 2.75 3.08 5.21-.3 3.2-2.62 4.5-5.31 5.17-4.32 1.1-8.53-.26-12.76-.97-73.77-12.28-146.68-28.38-219.24-46.61-85.1-21.39-169.39-45.06-252.24-74.04-47.24-16.52-96.19-27.38-144.2-41.38-59.37-17.32-118.67-34.9-177.99-52.37-1.03-.3-2.03-.7-3.06-1.05-27.43-9.21-31.51-16.26-26.85-45.47 3.92-24.54 11.56-48.09 18.86-71.72 3.97-12.85 8.33-25.58 12.08-38.48 4.41-15.16 11.21-29.07 20.13-42.01 9.05-13.14 13.53-27.94 16.12-43.51 1.07-6.46-.78-10.46-7.37-11.91-2.63-.58-5.2-1.39-7.8-2.06-15.34-3.92-14.99-3.76-20.05 11.45-23.45 70.58-39.26 143.1-55.19 215.59-3.46 15.74-5.97 31.71-8.26 47.66-2.25 15.68-1.02 16.7 14.14 21.29 55.66 16.84 113.09 26.36 169.27 41.16 115.98 30.53 231.52 62.57 346.85 95.5 97.71 27.9 195.48 55.84 294.87 77.6 53.64 11.74 105.74 29.28 157.88 46.3 103.86 33.89 209.31 62.1 315.13 88.98 30.2 7.67 61.03 12.69 91.87 17.32 13.3 1.99 26.52 4.43 39.79 6.59 14.39 2.34 15.38 2.01 20.31-11.35 14.54-39.36 28-79.08 39.45-119.47 8.82-31.07 17.3-62.16 21.41-94.3 2.33-18.23 7.16-35.86 15.9-52.21 3.9-7.33 4.68-15.25 5.36-23.37.57-6.9-2.53-9.89-8.59-11.26-5.25-1.18-10.46-2.53-15.69-3.74-20.26-4.69-21.54-4.28-25.43 16.59-13.61 73.09-32.63 144.76-55.82 215.37-3.03 9.22-6.44 18.21-11.29 26.68-7.02 12.25-17.4 17.4-31.12 14.6-11.05-2.26-21.92-5.4-32.84-8.25-78.06-20.34-156.23-40.29-234.14-61.22-60.77-16.31-121.24-33.73-181.77-50.9-19.19-5.45-27.85-23.18-21.61-43.36zm756.96-142.48c12.08-59.56 22.68-119.47 36.66-178.59 17.82-75.36 38.99-149.92 57.6-225.1 25.45-102.85 52.95-205.22 73.98-309.12 4.58-22.63 7.3-45.64 10.9-68.48 2.36-14.92 6.04-29.54 11.17-43.73 14.63-40.5 25.25-82.26 38.76-123.12 7.26-21.95 6.76-22.12-14.72-28.3-23.97-6.91-24.84-5.76-32.71 19.89-30.52 99.43-49.26 201.58-70.67 303.1-14.21 67.35-24.26 135.69-41.04 202.36-23.23 92.28-50.25 183.64-85.03 272.47-11.76 30.04-20.8 61.13-35.23 90.13-2.4 4.8-4.32 9.94-8.34 13.7-5.3 4.95-10.99 4.27-14.85-1.9-3.54-5.67-4.03-12.16-4.07-18.68-.07-15.66 2.05-31.16 4.41-46.54 3.21-21.02 3.13-41.72-1.03-62.56-4.42-22.17-9.22-44.21-16.41-65.7-3.87-11.59-10.9-20.45-19.8-28.77-39.03-36.49-87.04-41.24-136.93-39.99-5.54.14-10.45 2.07-14.81 5.59-39.5 31.87-72.49 69-92.21 116.42-12.25 29.45-11.16 31.24 18.67 39.43 33.29 9.15 65.65 20.72 96.53 36.25 5.75 2.89 11.32 6.19 16.81 9.58 2.71 1.67 5.78 4.04 4.32 7.68-1.31 3.28-5.07 4.21-8.25 3.95-11.79-.97-23.54-2.26-35.28-3.56-55.23-6.1-108.79-20.77-163.06-31.73-16.86-3.4-33.44-8.16-50.12-12.38-5.24-1.32-10.45-3.2-15.4.71-20.6 16.24-40.89 32.89-65.14 49.55 15.91 7.18 29.57 7.18 42.57 9.07 66.6 9.68 132.16 24.42 197.7 39.27 47.22 10.7 93.09 26.66 140.5 36.63 52.26 10.99 102.59 28.42 153.06 45.39 17.68 5.94 17.62 6 21.46-12.92zm339.76-983.28c-8.8 16.12-22.1 24.03-41.32 21.55-13.29-1.72-13.64-.95-16.97 12.88-6.03 25.1-11.74 50.28-17.59 75.43-9.15 39.33-23.35 77.22-33.18 116.36-19.66 78.26-39.49 156.47-58.98 234.76-12.35 49.58-23.82 99.38-36.4 148.91-22.51 88.62-50.09 175.9-71.39 264.86-10.4 43.46-23.24 86.22-34.85 129.34-2.26 8.41-4.03 16.69-.77 25.3 7.7 20.36 6.67 41.44 2.81 62.09-5.63 30.12-11.86 60.22-19.72 89.82-19.28 72.79-39.5 145.34-59.68 217.89-5.76 20.71-12.06 41.31-21.66 60.72-6.11 12.33-14.28 22.79-26.14 30.01-20.92 12.74-42.46 23.48-68.19 20.35-4.23-.52-8.6.05-12.9.22-14.56.56-14.3.7-18.56 14.82-4.97 16.44-8.96 33.21-16.37 48.88-6.33 13.39-16.41 20.83-31.13 22.29-5.34.53-10.82.97-15.88 2.57-19.51 6.24-39.21 5.54-59.09 2.7-25.02-3.58-49-12.39-74.4-14.28-21.5-1.59-42.75-5.57-63.24-12.23-25.15-8.17-50.71-13.97-76.78-18.34-60.28-10.11-117.38-31.14-174.23-52.75-16.12-6.12-30.8-15.35-45.34-24.59-14.63-9.3-20.79-22.15-17.64-39.84 3.31-18.58 7.33-36.9 13.1-54.87 4.12-12.83 3.4-13.33-8.64-16.91-84.08-24.99-169.8-43.67-254.71-65.46-58.36-14.97-117.97-24.39-176.34-39.42-93.24-23.99-186-49.86-279.82-71.6-16.77-3.89-16.27-6.89-25.56 9.77-9.38 16.81-23.83 27-41.65 33.76-28.31 10.76-56.64 10.91-85.52 3.16-46.21-12.4-94.19-17.6-139.33-34.31-7.14-2.65-11.34-.51-12.79 7.12-.6 3.15-1.6 6.26-2.75 9.27-11.4 29.73-31.02 49.71-63.76 54.96-12.85 2.05-25.68 2.43-38.59 2.47-25.29.08-50.69-1.4-75.83.54-47.78 3.69-94.75 12.93-141.53 23.43-49.3 11.08-97.94 25.22-148.12 32.39-41.95 5.99-81.1-.97-118.14-22.16-21.45-12.27-39.07-28.6-55.18-46.67-38.33-43-81.89-80.68-122.82-121-26.7-26.3-56.02-50.38-87.16-71.72-42.64-29.21-82.9-61.59-124.18-92.63-39.56-29.75-75.83-63.61-116.38-92.17-21.52-15.15-36.82-36-46.43-60.75-20.698-53.25-28.303-107.83-18.088-164.6 7.23-40.19 13.828-80.44 15.848-121.45 1.2-24.16 1.6-48.37 3.34-72.5 3.38-46.78 2.49-93.48-2.37-140.15-4.18-40.1-8.267-80.22-11.51-120.41-4.64-57.44-11.929-114.37-25.691-170.46-9.609-39.17-18.207-78.6-26.414-118.08-2.652-12.75-7.453-22.36-18.317-30.49-18.437-13.8-36.265-28.38-49.832-47.8-35.195-50.39-48.429-107.16-51.511-167.31-2.051-40.12 7.652-77.88 22.082-114.78 11.75-30.06 23.879-59.99 35.133-90.23 26.265-70.59 51.003-141.76 78.476-211.85 21.578-55.06 46.744-108.72 70.574-162.85 41.88-95.15 90.64-186.84 150.52-272.17 9.09-12.95 15.86-26.69 20.41-41.79 10.87-36.05 22.11-71.99 33.09-108.01 22.13-72.59 37.9-146.87 58.36-219.91 25.52-91.11 73.22-167.92 147.86-227.478 32.86-26.223 67.34-50.02 101.72-74.063 25.64-17.929 52.2-34.14 80.16-48.148 50.69-25.403 103.82-44.449 157.95-60.832 69.16-20.918 139.19-26.028 210.4-11.297 99.6 20.617 187.43 65.629 266.35 128.617 52.34 41.77 84.75 96.762 100.18 161.59 6.35 26.651 12.18 53.751 13.35 81.081.81 18.78 8.1 33.46 16.67 49.27 38.81 71.5 73.02 145.22 96.19 223.42 17.01 57.45 25.59 116.52 27.43 176.47 0 10.23-.06 20.45.02 30.67.04 4.96 2.61 6.85 7.35 5.26 6.12-2.06 12.09-4.56 18.28-6.37 45.95-13.42 86.22-5 118.86 31.55 7.88 8.82 15.59 17.86 22.6 27.37 16.39 22.24 22.15 47.39 19.17 74.75-2.53 23.3-8.55 45.79-20.27 65.92-22 37.78-33.86 78.97-43.43 121.03-9.19 40.38-16.86 81.11-29.34 120.7-1.75 5.57-2.16 11.59-2.88 17.44-3.93 31.68-9.81 62.66-27.57 90.22-11.84 18.39-11.53 19.07 9.39 22.97 57.09 10.63 114.15 21.57 170.38 36.1 54.16 13.99 108.15 28.68 161.84 44.36 67.17 19.61 135.64 34.12 203.02 52.84 117.15 32.54 235.52 60.12 354.13 86.7 48.83 10.93 98.73 16.46 147.13 29.29 76.43 20.27 152.79 40.74 229 61.78 59.22 16.34 120.81 20.97 179.99 37.37 10.83 3.01 22.14 4.38 33.24 6.45 65.71 12.25 129.66 31.09 193.05 51.94 9.26 3.04 17.53 7.75 24.17 15.41 12.77 14.72 17.81 30.83 14.77 50.6-4.05 26.33-10.77 51.57-23.54 74.94" style="fill:#000;fill-opacity:1;fill-rule:nonzero;stroke:none" transform="matrix(.13333 0 0 -.13333 0 666.667)"/><path d="M2310.78 1652.58c1.07-2.85 2.32-6.46 6.52-5.68 3.2.61 3.57 3.68 3.98 6.3 1.38 8.94 2.65 17.89 3.96 26.83 2.38-6.1 3.46-12.33 4.03-18.61.68-7.56 2.1-14.92 5.17-21.86 1.06-2.41 2.46-5.01 5.77-4.75 3.24.26 4.17 2.98 5.13 5.46 2.49 6.42 2.15 13.81 7.59 22.56 0-13.77-.27-24.51.15-35.23.15-3.94-.06-9.6 5.68-9.95 4.7-.3 5.26 4.79 6.36 8.15 2.78 8.5 5.12 17.13 7.63 25.71.74-.13 1.46-.27 2.2-.4 0-13.23-.07-26.45.02-39.67.06-9.73 1.19-19.32 5.03-28.38.84-1.98 2.17-3.72 4.68-3.78 2.69-.06 3.79 1.98 4.38 3.98 1.79 6.19 3.3 12.47 4.95 18.7 17.35 65.52 31.25 131.81 43.87 198.37 1.19 6.32 2.91 12.63 1.1 19.13-1.71 6.18-5.19 10.75-11.85 11.71-5.89.85-10.2-2.01-13.79-6.58-2.94-3.74-3.01-9.16-7.13-12.28-9.76 14.17-18.2 14.09-26.21.14-2.06-3.59-1.78-8.61-6.27-10.78-16.15 13.02-26.29 10.15-33.16-9.72-2.39-6.89-3.78-14.14-5.65-21.3-2.66 1.27-2.81 3.58-3.4 5.52-1.74 5.71-5.18 9.59-11.36 9.72-7.03.15-10.76-4.66-12.64-10.56-1.77-5.58-2.82-11.46-3.62-17.29-3.28-24.11-2.11-48.25.19-72.36 1.08-11.23 2.7-22.45 6.69-33.1M1834.14 2936.25c5.8-6.18 11.7-12.26 17.71-18.54-3.15-1.73-4.83.11-6.64.92-5.32 2.35-10.63 3.35-14.61-1.88-3.78-4.96-2-10.23.77-15.1 3.24-5.69 7.9-10.24 12.73-14.49 36.23-31.88 76.41-57.46 121.14-75.74 3.47-1.41 7.11-2.46 10.75-3.37 2.18-.55 4.32.21 5.52 2.26 1.28 2.19.3 4.32-1.2 5.85-2.62 2.68-5.47 5.16-8.37 7.54-11.52 9.44-23.11 18.81-35.07 28.52 3.98 2.03 6.01-.39 8.29-1.34 5.94-2.47 11.72-5.34 17.7-7.73 1.93-.77 4.4-.61 5.74 1.58 1.22 1.98 1.03 4.2-.44 5.97-2.39 2.88-5.05 5.55-7.55 8.35-4.61 5.16-10.53 9.31-13.37 15.86 7.96-4.05 15.05-8.88 22.39-13.29 2.57-1.55 6.03-3.75 8.68-.36 2.44 3.15 0 6.08-1.8 8.7-2.13 3.1-4.36 6.14-6.72 9.06-35.19 43.46-70.41 86.89-105.63 130.31-1.69 2.08-3.42 4.19-5.42 5.95-6.83 6-13.44 7.02-18.93 2.75-6.48-5.05-6.9-11.74-4.33-18.92 2.22-6.15 5.89-11.5 10-16.48 12.61-15.26 25.36-30.4 38.06-45.59-.58-.35-1.16-.69-1.74-1.04-6.2 5.92-12.42 11.82-18.62 17.76-6.22 5.96-12.62 11.7-19.96 16.29-4.77 2.99-9.82 5.12-15.03 1.6-5.69-3.85-6.02-9.84-4.88-15.93 1.42-7.66 5.61-13.9 10.83-19.47M2095.88 2179.65c20.62-33.43 42.73-65.82 66.94-96.76 4.34-5.54 9.4-10.34 15.35-14.14 2.28-1.45 4.8-3.01 7.48-1.51 3.48 1.93 3.03 5.44 2.31 8.56-3.31 14.33-10.2 27.11-17.44 39.71-2.94 5.11-6.05 10.1-9.09 15.13 9.24-6.81 15.89-15.17 22.67-23.42 6.48-7.89 13.03-15.73 19.66-23.49 2.12-2.49 4.82-5 8.27-3.15 2.62 1.4 2.64 4.6 1.85 7.23-2.01 6.68-3.86 13.46-6.55 19.88-5.51 13.15-11.53 26.09-17.34 39.12.63.38 1.26.75 1.89 1.13 6.68-8.15 13.05-16.61 20.16-24.39 7.24-7.91 15.13-15.24 22.91-22.64 1.93-1.83 4.68-3.09 7.36-1.34 2.57 1.66 2.56 4.46 2.26 7.21-.85 7.55-3.26 14.69-6.11 21.66-15.39 37.61-36.88 71.59-61.76 103.54-4.31 5.53-9.39 10.36-15.23 14.31-6.88 4.64-14.06 8.34-22.55 4.47-8.95-4.09-9.34-12.07-7.7-21.5-8.72.86-17.3 4.05-22.93-4.26-5.71-8.41 1.02-16.03 3.05-24.58-2.89.63-4.39 1-5.91 1.27-12.3 2.24-17.34-3.37-13.22-14.88.9-2.5 2.26-4.89 3.67-7.16M1109.29 2511.73c4.12 3.43 13.48 5.64 9.59 12.32-3.42 5.86-10.96.41-16.01-1.65-12.3-5.01-24.2-10.97-36.27-16.56-.38.82-.77 1.64-1.15 2.46 1.93 1.8 3.77 3.7 5.79 5.39 12.36 10.36 24.83 20.59 37.11 31.05 3.11 2.65 8.15 5.27 5.95 10.24-2.63 5.9-8.27 3.3-12.85 2.52-9.59-1.66-18.72-4.8-27.72-8.46-35.8-14.52-66.51-37.21-97.019-60.23-14.207-10.72-27.391-22.59-39.133-35.98-5.691-6.48-11.137-13.28-12.89-22.03-2.625-13.14 6.031-22.32 19.179-20.69 3.621.45 6.703 3.57 10.688 2.16.726-16.71 2.832-17.91 17.531-10.27 10.574 5.51 19.883 12.81 29.014 20.33 36.13 29.73 72.23 59.48 108.19 89.4M1875.39 3009.24c28.62-42.73 62.79-80.56 101.36-114.45 4.83-4.25 10.26-7.85 15.68-11.34 3.39-2.18 7.27-6.33 11.35-1.97 3.18 3.4.11 7.11-1.79 10.23-5.61 9.18-11.33 18.3-17.12 27.36-4.59 7.18-9.36 14.25-14.04 21.36 17.69-16.58 34.01-33.65 50.98-50.12 3.45-3.35 7.25-6.38 11.15-9.22 1.05-.76 3.29-.77 4.53-.18 2.26 1.06 2.55 3.59 1.65 5.57-2.68 5.86-5.46 11.71-8.62 17.32-24.53 43.67-54.57 83.85-80.41 126.69-1.37 2.27-3.23 4.32-5.12 6.2-5.26 5.22-11.35 8.74-18.83 5.43-7.42-3.28-9.74-9.52-8.14-17.35.42-2.04 1.44-4.16-.39-6.21-4.5.44-5.46 4.72-7.62 7.5-5.93 7.65-11.08 15.93-17.35 23.27-7.63 8.93-16.06 11.34-22.55 7.74-6.64-3.7-8.87-12.04-6.12-23.03 2.26-8.97 6.26-17.15 11.4-24.8M2358.15 2541.34c12.84-19.37 29.68-35.31 44.9-52.65 19.59-22.32 41.5-41.96 65.9-58.86 2.64-1.82 5.32-3.64 8.15-5.13 1.91-1.03 4.34-1.48 5.66.85.69 1.21 1.04 3.38.41 4.46-3.19 5.57-6.46 11.14-10.24 16.32-9.05 12.38-18.4 24.56-27.64 36.81 1.07.77 2.13 1.54 3.19 2.3 4.66-4.34 9.26-8.73 14-12.97 5.19-4.66 10.36-9.36 15.83-13.69 2.87-2.27 6.47-4.88 10.15-1.9 2.77 2.25 2.3 5.91 1.26 9.03-2.37 7.12-4.51 14.37-7.57 21.2-14.36 32.03-33.44 61.21-54.82 88.92-3.91 5.08-8.42 9.8-13.19 14.09-10.23 9.23-20.88 10.42-29.03 3.8-7.66-6.22-9.11-16.47-3.52-27.96 2.1-4.32 5.1-8.19 7.55-12.36 1.89-3.22 5.66-5.61 5.85-12.13-5 4.78-8.48 8.06-11.9 11.39-5.39 5.24-10.55 10.75-17.33 14.29-4.43 2.31-9.08 4.2-13.37.06-4.04-3.89-3.75-8.83-1.55-13.43 2.07-4.33 4.66-8.44 7.31-12.44M1268.59 2320.49c29.38 10.26 58.66 20.86 87.76 31.89 5.92 2.25 16.3 3.26 14.68 11.8-1.44 7.58-11.49 6.8-18.03 7.29-23.05 1.73-46.08 1.55-68.94-3.1-25.81-5.24-51.36-11.48-76.3-19.86-28.13-9.45-55.05-21.5-77.35-41.81-6.39-5.82-12.3-12.16-14.21-21.01-2.63-12.25 5.11-21.69 19.14-21.25 8.37 1.57 17.51 6.19 26.73 10.46 35.05 16.25 69.96 32.82 106.52 45.59M1380.94 2036.52c4.19-.66 8.59-.78 12.81-.34 9.08.95 18.13 2.22 27.13 3.7 42.38 6.98 84.4 15.98 126.95 22.1 21.21 3.06 42.09 8.44 63.07 13 3.62.79 7.7 2.43 7.66 7.04-.03 3.53-3.12 5.6-6.15 6.81-4.97 1.99-9.98 4.08-15.17 5.29-18.34 4.31-36.86 7.48-56.88 6.63-15.15.99-31.09-1.99-47.13-3.38-31.06-2.67-61.89-7.1-91.93-15.9-10.37-3.03-20.4-6.93-28.87-13.82-6.21-5.06-9.94-11.54-7.63-19.82 2.21-7.94 9.05-10.19 16.14-11.31M1319.75 1379.48c6.22-10.04 12.53-20.04 19.27-29.73 28.56-41.1 60.44-79.54 94.2-116.42 14.91-16.29 31.37-30.92 49.9-43.05 6.75-4.41 13.95-8.17 21.97-9.76 3.35-.68 6.51.01 7.21 4.84-1.06 4.49-4.64 7.84-7.72 11.53-19.56 23.55-39.39 46.88-58.58 70.73-33.69 41.83-66.62 84.28-102.04 124.7-3.53 4.04-7.11 8.07-11.08 11.65-4.33 3.92-9.58 5.41-14.69 1.65-4.89-3.6-5.83-8.89-3.79-14.45 1.47-4.02 3.1-8.07 5.35-11.69M2265.69 2367.21c-25.22 41.41-55.6 78.99-87.46 115.32-23.01 26.23-47.59 51.05-74.31 73.59-4.48 3.78-8.93 7.84-15.13 8.75-7.84.51-13.4-6.56-11.71-15.39 1.59-8.25 7.06-14.31 12.46-20.32 25.46-28.34 50.57-57.01 76.48-84.94 28.08-30.27 54.7-62.04 87-88.17 4.59-3.71 9.27-7.29 14.02-10.8 1.74-1.29 4.14-2.21 5.98-.94 2.62 1.81 2.11 4.74.88 7.24-2.61 5.29-5.15 10.64-8.21 15.66M2222.47 2363.72c-33.07 48.88-73.31 91.25-118.46 129.07-3.22 2.7-7.11 5.05-11.09 6.35-8.96 2.94-16.1-2.69-16.19-12.13-.05-5.89 2.59-12.59 10.78-22.98 30.72-38.95 65.41-74.15 102.38-107.13 10.05-8.95 20.92-16.92 32.62-23.61 3.48-2 7.51-5.56 11.62-1.47 3.28 3.26 1.13 7.28-.4 10.53-3.44 7.28-6.77 14.74-11.26 21.37M1465.83 2004.84c42.37 7.05 84.54 15.15 126.47 24.52 5.75 1.28 11.42 2.97 17.05 4.7 2.63.81 5.01 2.4 4.84 5.61-.15 3.04-2.49 4.67-5.01 5.65-10.6 4.16-21.68 6.24-32.99 6.86-27.95 1.5-55.83.89-83.5-3.92-19.04-3.32-38.22-5.97-56.7-11.92-8.19-2.64-16.47-5.4-22.62-11.82-7.45-7.77-5.48-16.42 4.52-20.26 7.2-2.77 14.83-1.91 20.62-1.97 10.31.18 18.8 1.13 27.32 2.55M2536.44 2002.09c-4.92 5.12-10.92 7-17.51 3.48-5.77-3.1-8.32-8.3-7.31-14.82.58-3.69 1.73-7.3 2.77-10.91 4.98-16.99 10.57-33.82 14.9-50.98 10.1-40.06 19.55-80.29 29.43-120.4 1.8-7.28 4.35-14.38 6.75-21.49.67-2.01 2.07-3.89 4.55-3.98 3.41-.13 4.76 2.58 5.17 5.1 1.43 8.99 2.45 18.05 3.05 22.65-1.17 31.32-3.91 57.98-8.79 84.42-5.47 29.58-11.67 58.97-22.47 87.17-2.68 7.02-5.21 14.21-10.54 19.76M1380.32 2323.66c-6.98.33-13.97.1-20.96.1-33.17.29-64.83-8.72-96.65-16.45-27.17-6.61-53.91-14.85-79.29-26.89-8.26-3.92-16.61-7.84-22.46-15.25-2.83-3.6-3.86-7.72-1.24-11.98 2.18-3.55 5.64-4.99 9.61-4.7 3.19.23 6.4.86 9.48 1.72 13.46 3.74 27.17 6.84 40.26 11.62 51.57 18.8 104.16 34.17 157.16 48.31 2.07.54 4.13 1.19 6.16 1.88 3.48 1.17 8.55 1.66 8.14 6.29-.51 5.64-6.13 5.16-10.21 5.35M1499.45 1999.57c-9.88-2.9-19.26-7.16-25.85-15.58-7.91-10.11-5.11-19.64 6.89-24.05 8.36-3.06 16.87-2.45 25.45-.77 29.06 5.67 57.66 13.04 85.55 23.01 12.14 4.33 24.17 9 36.14 13.8 3.41 1.36 7.34 3.21 7.01 7.81-.33 4.58-4.51 5.61-8.02 6.77-11.97 3.95-24.43 3.15-41.31 3.58-26.44.35-56.35-5.94-85.86-14.57M1346.87 2281.16c-8.05.11-16.18.36-24.15-.54-11.2-1.29-22.42-2.97-33.38-5.57-23.6-5.59-46.6-13.13-67.97-24.85-7.53-4.14-15.14-8.52-18.87-16.94-4.42-10.02 1.13-19.39 13.17-19.57 4.05 1.24 9.79 2.69 15.31 4.74 37.8 14.07 74.86 29.99 111.8 46.16 2.46 1.08 4.91 2.24 7.23 3.58 3.19 1.86 7.59 3.61 6.26 8.16-1.18 4.06-5.65 4.77-9.4 4.83M1117.61 2471.62c3.22 2.75 6.85 5.35 7.57 9.86-.37 2.65-1.8 3.99-4.22 4.18-4.39.38-8.54-.74-12.61-2.22-42.27-15.47-77.77-41.12-108.955-73.04-6.36-6.51-11.442-14.29-14.082-23.3-1.325-4.51-.7-8.73 2.988-11.76 3.84-3.15 8.062-2.32 11.959.24 2.7 1.77 5.33 3.66 7.87 5.65 13.54 10.62 27.29 21 40.52 31.99 23.17 19.25 46.04 38.86 68.96 58.4M2325.01 2453.38c28.66-29.88 58.91-57.84 96.22-76.86 5.45-2.77 13.19-8.87 17.38-3.64 5.67 7.07-3.77 12-8.05 16.58-14.64 15.64-29.89 30.7-44.91 45.99 13.28-9 26.53-18.05 39.86-26.96 4.9-3.28 9.92-6.62 15.78-7.8 4.93-.99 7.15 1.82 6 6.54-.61 2.53-2.07 4.96-3.57 7.14-25.13 36.17-51.63 71.26-83.02 102.33-3.78 3.74-8.22 6.89-12.66 9.86-5.7 3.8-11.84 5.45-17.87.63-5.96-4.76-5.68-11.18-3.89-17.65 2.04-7.32 5.81-13.83 10.14-20.02 8.32-11.92 17.96-22.7 28.44-32.75-4.79.1-7.63 3.55-10.77 6.38-6.36 5.76-12.63 11.62-20.12 15.94-4.5 2.61-9.11 3.46-13.41-.24-4.16-3.58-4.59-8.3-3.09-13.24 1.43-4.71 4.21-8.75 7.54-12.23M1452.38 1319.69c-1.89 1.85-4.12 3.46-6.44 4.76-4.06 2.29-8.31 2.42-12-.73-3.11-2.67-3.76-6.32-2.94-10.28 1.23-5.97 4.3-11.06 8.2-15.5 28.45-32.35 59.38-61.96 96.03-85.08 4.04-2.55 8.57-4.42 13.07-6.08 3.04-1.13 4.99.76 5.66 3.85-.81 5.07-4.33 8.52-7.32 12.27-28.23 35.37-61.99 65.35-94.26 96.79M1628.4 1969.09c-9.86 3.33-20.08 2.67-32.95 2.83-16.77.6-35.7-2.47-54.04-8.92-14.26-5.03-22.06-14.69-19.73-23.61 2.23-8.49 12.6-12.3 27.58-9.65 13.7 2.43 27.34 5.28 40.38 10.29 13.48 5.17 27.46 9.07 40.19 16.08 2.85 1.57 5.91 3.49 5.48 7.19-.43 3.66-3.82 4.75-6.91 5.79M2102.76 2412.69c-5.21 4.61-12.43 12.81-19.26 5.74-6.41-6.63 1.15-14.15 5.72-19.65 16.86-20.31 36.08-38.42 55.06-56.72 8.93-8.61 18.87-16.01 29.38-22.6 3.15-1.98 6.62-3.57 10.13-4.82 2.96-1.05 5.15.35 5.87 3.57-.42 3.98-2.87 6.9-5.17 9.87-24.12 31.22-52.32 58.52-81.73 84.61M1347.71 2229.01c-2.12.29-4.27.28-6.63.41-23.88-2.39-47.45-6.84-69.58-17.17-4.38-2.04-8.55-4.51-11.8-8.18-2.96-3.35-4.84-7.17-3.34-11.74 1.69-5.14 5.7-7.73 10.82-8.26 3.13-.32 6.51-.28 9.53.53 26.02 6.98 49.96 18.91 73.54 31.61 3.22 1.74 7.06 4.08 5.56 8.59-1.11 3.33-4.91 3.77-8.1 4.21M2093.3 2129.55c10.13-13.8 20.55-27.38 32.37-39.79 6.26-6.59 12.85-12.86 19.41-19.13 1.95-1.86 4.67-3.44 7.14-1.52 2.46 1.93 1.59 4.91.38 7.36-13.57 27.42-29.5 53.33-49.3 76.74-2.46 2.91-5.55 5.04-9.92 5.03-6.21-1.1-8.8-5.33-8.14-11.43.72-6.57 4.25-12.06 8.06-17.26M1623.53 3876.05c-.03-9.59 5.78-15.91 13.85-20.2 6.71-3.56 14.03-5.43 21.44-6.89 24.09-4.77 48.37-8.24 72.86-10.44-17.18.01-34.38-1.33-51.47 1.34-3.16.49-6.47.73-9.61.3-5.81-.79-9.98-4.03-11.2-10.03-1.09-5.38 1.48-9.39 5.66-12.43 5.35-3.9 11.5-5.9 17.97-6.7 45.02-5.55 90.19-4.51 135.3-2.14 18.2.96 36.47 2.97 54.16 8.03 4.64 1.33 9.27 2.8 13.76 4.55 2.45.96 5.05 2.59 4.29 5.85-.74 3.19-3.75 3.56-6.41 3.79-3.75.33-7.52.38-11.28.53-27.91 1.14-55.73 4.12-83.76 4.21 16.58.37 32.97 2.45 49.24 5.02 6.42 1.02 17.56.03 17.76 7.59.25 9.49-11.25 7.5-17.96 9.04-19.81 4.53-39.8 8.28-62.03 12.8 6.6 2.49 10.82 1.61 14.76.87 16.54-3.1 33.22-2.46 49.88-2.36 3.76.02 7.59.09 11.25.79 4.03.77 9.91.54 10.5 5.55.68 5.9-5.65 5.46-9.42 6.48-11.41 3.08-23.04 5.41-34.43 8.55-50.83 14.02-102.42 24.89-153.61 37.4-7.7 1.89-15.62 4.4-23.85 2.16-6.07-1.65-10.96-4.7-12.75-11.05-1.8-6.43.72-11.49 5.62-15.7 2.37-2.03 6.08-2.6 7.08-6.65-1.13-.85-2.23-2.16-3.62-2.63-8.52-2.88-13.96-8.47-13.98-17.63M1085.96 3442.36c8.27-.01 15.27 5.21 21.91 10.64 18.28 14.99 36.43 30.15 54.42 45.5 31.08 26.49 62.76 52.33 90.63 82.37 3.65 3.93 7.1 8.06 10.43 12.26 1.68 2.11 3.23 4.92 1.51 7.4-2.23 3.23-5.81 2.32-8.77 1.03-5.4-2.37-10.77-4.89-15.93-7.75-56.88-31.52-105.41-74.01-153.2-117.4-4.72-4.29-8.91-9.46-12.26-14.9-5.93-9.63-.77-18.73 11.26-19.15M1859.19 3795.17c-46.44 4.12-92.88 8.53-139.62 6.71-6.45-.24-12.94-.58-18.99-2.91-11.88-4.57-13.92-17.27-4.1-25.51 5.47-4.59 12.16-6.79 19.16-7.76 12.21-1.69 24.43-3.52 36.86-2.85 36.55 1.18 72.64 5.48 107.58 16.93 4.76 1.55 12.26 1.87 11.88 8.64-.38 7-7.82 6.31-12.77 6.75M1121.46 3447.44c-4.06-4.29-7.99-8.7-10.31-14.27-2.28-5.46-1.85-10.55 2.5-14.8 4.31-4.2 9.39-4.76 14.85-2.36 5.98 2.63 10.83 6.87 15.72 11.06 37.99 32.55 70.76 70.24 104.87 106.6 6.96 7.42 13.61 15.16 20.22 22.91 2.4 2.81 5.01 5.65 5.77 9.49-.16 3.55-2.47 5.08-5.29 3.92-4.42-1.81-8.75-4.12-12.64-6.89-48.59-34.6-94.58-72.28-135.69-115.66M1160.48 3420.86c-3.3-4.22-6.37-8.68-9.07-13.31-3.32-5.67-3.42-11.46 1.98-16.02 5.32-4.5 11.11-3.66 16.31.22 3.86 2.88 7.31 6.33 10.79 9.68 6.58 6.32 13.06 12.75 19.58 19.14 4.72 4.91 8.96 10.23 13.13 15.61-4.17-5.38-8.41-10.7-13.13-15.61-1.28-5.94-5.3-10.51-7.97-15.75-7.14-14.09-6.43-24.32 2.22-30.62 9.02-6.57 20.47-3.99 30.77 8.26 17.69 21.03 32.72 43.94 45.45 68.32 6.21 11.91 12.43 23.84 16.52 36.71 1.29 4.06 3.4 8.87-.53 12.06-5.04 4.1-8.96-.52-12.54-3.51-4.53-3.78-8.62-8.09-13.07-11.98-8.48-7.42-17.08-14.71-25.63-22.06 3.25 9.41 10.44 16.2 15.99 24.07 11.48 16.26 23.26 32.31 32.61 49.96 1.54 2.91 2.52 6.36-.94 8.55-2.64 1.67-5.15-.3-7.29-1.91-1.71-1.3-3.29-2.78-4.85-4.26-39.04-37.06-77.06-75.07-110.33-117.55M3463.04 2731.94c-2.64-15.9-6.39-31.64-8.71-47.58-1.86-12.62-6.75-23.49-13.95-33.88-20.92-30.18-45.45-57.13-70.92-83.48-19.75-20.45-44.34-27.24-70.93-30.08-8.51-.91-17.19-.14-25.8-.14-22.24-1.16-44.19.45-64.41 10.9-40.45 20.91-65.39 53.66-72.35 98.78-3.6 23.3-6.19 46.87-1.44 70.59 4.22 20.99 11.46 38.93 29.22 53.52 94.5 77.62 106.39 228.2 19.19 324.93-29.88 33.16-68.05 51.36-111.76 59.71-59.05 11.28-114.45 3.41-166.06-28-22.81-13.87-41.75-32.21-57.95-53.15-14.61-18.87-35.15-27.02-56.88-30.19-49.16-7.17-95.79 18.58-117.35 59.58-23.85 45.34-28.03 91.94-15.2 140.69 5.48 20.81 13.27 40.89 21.73 60.7 5.63 13.17 14.13 23.8 25.44 32.68 69.01 54.16 147.9 84.82 233.96 97.65 21.67 3.23 43.8 5.08 65.92 3.76 12.13-.72 13.49-2.31 8.13-13.6-21.05-44.32-17.34-88.82-1.09-133.25 8.15-22.29 22.21-40.39 42.46-53.33 29.93-19.13 62.19-32.31 97.76-34.94 72.46-5.34 132.74-37.84 186.49-83.77 44.02-37.6 78.22-82.8 96.18-138.82 2.47-7.67 5.03-15.37 6.7-23.23 7.59-35.75 15.54-71.45 22.12-107.38 7.23-39.47 6.05-79.16-.5-118.67zm-625.98 212.02c.15 92.73 61.1 166.21 157.52 181.06 33.94 5.23 67.2.9 98.52-16.08 42.84-23.24 79.19-53.37 97.76-98.99 28.45-69.87 17.85-135.01-32.52-192.12-29.03-32.91-65.38-55.08-109.13-60.53-132.23-16.49-215.69 85.32-212.15 186.66zm730.24-4.34c-.6 21.05-3.01 41.81-6.13 62.54-11.55 76.95-36.4 149.78-75.42 216.69-62.53 107.2-154.24 182.12-267.92 230.68-90.45 38.64-184.18 48.59-281.29 33.8-93.36-14.22-177.84-49.38-254.62-103.68-33.05-23.37-63.44-49.78-88.39-82.01-24.75-31.96-45.74-66.42-67.16-100.58-8.58-13.67-15.72-28.15-22.3-42.92-31.81-71.39-46.43-146.26-45.92-233.32-.31-16.24.76-41.48 4.09-66.58 1.33-10.12 2.93-20.23 4.79-30.26 14.85-79.92 45.29-153.62 90.69-220.85 43.01-63.66 96.41-117.21 163.44-155.5 79.22-45.25 164.9-70.74 255.98-76.32 86.07-5.28 169.4 7.67 249.09 41.71 73.32 31.32 136.77 76.41 190.85 134.95 41.34 44.75 72.24 96.03 97.52 151.2 35.03 76.42 55.14 155.85 52.7 240.45" style="fill:#000;fill-opacity:1;fill-rule:nonzero;stroke:none" transform="matrix(.13333 0 0 -.13333 0 666.667)"/><path d="M3126.37 3053.05c-2.51 2.47-4.63 6.25-10.44 4.76-2.51-9.82-.55-20.69-3.68-30.94-5.96-19.44-23.22-34.69-42.65-36.61-17.85-1.76-36.96 9.85-45.4 27.6-9.51 20.01-6.51 38.85 9.21 54.64 6.28 6.3 13.28 11.88 21.13 18.84-13.41 6.16-25.81 6.76-38.64 5.35-24.64-2.69-45.77-14.27-67.6-24.84-61.18-29.64-85.31-99.37-77.31-150.06 15.28-96.93 118.06-162.4 215.95-116.11 91.76 43.38 120.83 167.08 39.43 247.37" style="fill:#000;fill-opacity:1;fill-rule:nonzero;stroke:none" transform="matrix(.13333 0 0 -.13333 0 666.667)"/></svg>